<?xml version="1.0" standalone="no"?>
<!DOCTYPE svg PUBLIC "-//W3C//DTD SVG 20010904//EN"
 "http://www.w3.org/TR/2001/REC-SVG-20010904/DTD/svg10.dtd">
<svg version="1.0" xmlns="http://www.w3.org/2000/svg"
 width="260.000000pt" height="180.000000pt" viewBox="0 0 260.000000 180.000000"
 preserveAspectRatio="xMidYMid meet">
<metadata>
Created by potrace 1.10, written by Peter Selinger 2001-2011
</metadata>
<g transform="translate(0.000000,180.000000) scale(0.100000,-0.100000)"
fill="#000000" stroke="none">
<path d="M1223 1781 c-17 -11 -36 -28 -42 -38 -9 -16 -10 -16 -11 5 0 13 -4
20 -10 17 -15 -9 -12 -62 5 -96 19 -35 17 -105 -3 -121 -26 -22 -42 -68 -42
-122 l0 -56 -27 11 c-14 5 -39 7 -54 4 -15 -3 -30 -1 -34 4 -3 6 -26 11 -50
11 -35 0 -48 -5 -59 -23 -19 -27 -28 -95 -14 -99 5 -2 -1 -12 -14 -23 -16 -14
-19 -15 -9 -3 18 24 4 44 -17 25 -25 -22 -79 -47 -99 -47 -10 0 7 13 37 28 52
26 60 36 94 110 l15 34 -52 -7 c-92 -12 -127 -27 -159 -66 -37 -47 -93 -86
-133 -94 -26 -5 -23 -2 15 19 44 24 139 114 110 104 -116 -40 -144 -54 -159
-80 -9 -15 -25 -31 -36 -35 -39 -12 94 -35 165 -27 36 3 109 7 162 8 113 1
149 19 159 77 6 41 26 79 40 79 6 0 3 -10 -5 -22 -9 -12 -16 -29 -16 -38 0 -8
6 -4 13 10 26 52 110 48 123 -7 11 -42 -4 -72 -46 -92 -22 -11 -37 -14 -33 -9
3 6 1 8 -4 5 -6 -4 -23 3 -39 15 -19 16 -29 18 -32 10 -6 -20 -58 -42 -99 -42
-52 0 -28 -22 26 -24 49 -1 52 -13 11 -59 l-30 -35 25 -4 c20 -4 25 0 30 24 7
31 65 98 85 98 7 0 -2 -13 -19 -29 -80 -75 -80 -203 1 -278 49 -46 148 -58
203 -25 l30 19 0 -101 c0 -56 -4 -107 -8 -113 -6 -9 -2 -13 10 -13 11 0 27 -6
37 -13 16 -12 15 -14 -8 -36 -15 -14 -26 -28 -26 -33 0 -4 14 -27 31 -51 25
-34 30 -49 25 -76 -5 -32 -4 -32 10 -15 12 14 14 15 11 3 -3 -9 1 -16 8 -16
10 0 11 7 4 25 -10 26 2 53 44 100 l21 22 -29 30 c-23 24 -26 32 -15 45 7 8
20 15 29 15 14 0 16 16 18 108 2 97 0 112 -22 156 -38 75 -36 78 43 71 63 -6
68 -4 84 18 16 23 15 26 -24 81 -45 64 -44 70 24 81 48 8 117 -22 147 -64 14
-19 24 -52 27 -84 7 -70 -16 -112 -87 -156 -42 -26 -48 -32 -25 -26 48 11 87
45 112 99 29 62 30 105 5 155 -21 40 -83 101 -104 101 -7 0 3 12 21 26 19 15
32 34 31 47 l0 22 -11 -22 c-6 -12 -23 -27 -38 -33 -69 -28 -122 56 -72 114
16 18 16 19 0 13 -11 -4 -18 -2 -18 7 0 8 13 12 36 11 24 0 38 4 42 15 7 21
33 50 45 50 5 0 5 -6 -2 -13 -6 -8 -7 -18 -3 -22 4 -5 2 -5 -5 -1 -6 3 -15 1
-18 -5 -12 -19 1 -19 41 0 21 10 64 21 94 24 51 6 211 -6 253 -19 13 -4 17 0
17 19 0 21 -6 25 -37 29 -61 8 -244 -9 -293 -27 -25 -9 -40 -12 -35 -6 18 17
119 42 197 48 68 5 75 8 66 22 -10 16 -18 15 -111 -6 -55 -12 -108 -25 -116
-28 -9 -4 -45 -9 -81 -12 -36 -3 -69 -6 -74 -6 -6 -1 -12 7 -14 18 -2 11 -16
36 -31 55 -32 42 -39 101 -17 135 18 27 21 90 6 100 -6 3 -10 -4 -10 -17 l0
-22 -16 22 c-16 23 -64 52 -85 52 -8 0 -6 -7 4 -18 20 -22 22 -42 5 -42 -7 0
-1 -8 12 -17 33 -22 40 -33 40 -64 0 -16 -7 -29 -17 -33 -14 -6 -11 -10 15
-26 42 -26 41 -35 0 -13 -45 23 -136 23 -172 0 -15 -10 -30 -16 -33 -13 -3 3
10 14 28 25 27 17 30 21 16 27 -29 11 -21 59 14 88 17 14 26 26 20 26 -16 0
-13 21 6 42 22 25 -1 24 -44 -1z m187 -239 c47 -38 73 -112 59 -168 -22 -83
-22 -89 6 -122 l27 -32 -27 0 c-14 0 -36 -5 -47 -11 -18 -10 -24 -8 -36 7 -13
18 -14 18 -7 -3 11 -38 -6 -48 -22 -14 -15 29 -34 40 -105 55 -34 8 -35 16 -2
67 l26 41 35 -52 c19 -28 37 -49 40 -47 5 5 -69 156 -77 156 -3 0 -22 -27 -42
-59 -21 -33 -41 -60 -46 -60 -4 0 -16 16 -25 35 -56 117 39 256 163 240 28 -3
58 -16 80 -33z m-595 -182 c-17 -7 -18 -9 -2 -9 16 -1 16 -3 2 -24 -8 -13 -12
-27 -8 -32 5 -4 3 -5 -4 -1 -6 3 -14 2 -17 -3 -3 -5 -22 -12 -41 -15 -19 -4
-35 -12 -36 -19 0 -8 -2 -8 -6 1 -4 10 -8 10 -18 2 -9 -7 -20 -8 -30 -3 -14 8
-13 12 7 29 18 15 20 16 9 1 -8 -9 -11 -20 -9 -23 9 -8 48 52 40 61 -4 5 -2 5
5 2 6 -4 17 -1 25 6 7 8 19 12 26 9 6 -2 12 1 12 6 0 11 22 19 50 20 9 0 7 -3
-5 -8z m351 -104 c-9 -15 -26 -26 -38 -26 -19 0 -20 2 -6 18 9 9 19 28 23 41
6 21 9 22 23 8 14 -14 13 -18 -2 -41z m65 -40 c-24 -26 -31 -66 -7 -44 8 7 12
15 10 17 -11 11 22 31 52 31 57 0 83 -61 43 -101 -17 -17 -28 -20 -57 -15 -27
5 -33 4 -22 -3 8 -6 27 -11 43 -11 22 0 27 -4 27 -25 0 -14 -1 -25 -2 -25 -21
1 -221 30 -224 32 -8 9 88 138 98 132 7 -4 8 -3 4 4 -4 6 -2 21 4 32 9 17 14
18 31 9 l21 -11 -21 -22z m-97 -8 c-5 -7 -27 -39 -51 -71 -57 -78 -50 -99 33
-108 32 -4 85 -7 117 -8 31 -1 57 -5 57 -9 0 -5 -13 -27 -29 -49 -98 -136
-315 -58 -299 107 6 60 39 107 92 131 48 22 91 25 80 7z m310 -108 c37 -68 31
-78 -36 -72 -29 2 -57 8 -61 12 -14 12 42 110 63 110 4 0 19 -23 34 -50z
m-113 -128 l15 -37 -40 0 -41 0 19 38 c10 20 21 37 25 37 3 0 13 -17 22 -38z
m21 -79 c19 -17 25 -77 8 -88 -5 -3 -7 -12 -4 -19 3 -9 -3 -17 -16 -21 -20 -6
-20 -8 -6 -24 22 -24 20 -43 -7 -63 -22 -15 -25 -15 -47 2 -22 17 -24 22 -14
48 10 27 9 32 -15 51 -14 12 -20 19 -12 15 10 -5 11 -1 5 17 -11 36 -6 70 14
85 24 19 72 17 94 -3z m-30 -290 c23 -20 23 -31 -1 -66 l-18 -28 -21 32 c-19
31 -19 34 -4 55 20 28 21 28 44 7z"/>
<path d="M1281 733 c-13 -24 16 -45 40 -30 13 8 15 15 8 29 -12 23 -35 23 -48
1z"/>
<path d="M1280 579 c0 -9 6 -22 14 -28 12 -10 17 -8 25 8 15 28 14 36 -5 20
-13 -10 -17 -10 -25 2 -7 12 -9 11 -9 -2z"/>
<path d="M1277 1713 c-4 -3 -7 -14 -7 -24 0 -10 -9 -24 -20 -32 -18 -13 -19
-15 -5 -21 22 -8 100 -8 108 0 3 4 -3 18 -13 32 -11 13 -20 31 -20 38 0 14
-31 19 -43 7z"/>
<path d="M314 1539 c-3 -5 6 -9 20 -9 41 0 107 -31 116 -54 5 -13 2 -31 -6
-47 -11 -23 -11 -29 0 -38 10 -8 16 -9 21 -1 10 17 23 2 19 -23 -3 -15 1 -12
11 10 8 17 30 44 50 58 19 15 35 34 35 43 0 9 -8 5 -22 -13 -20 -26 -106 -71
-115 -61 -3 3 11 12 32 20 35 15 36 16 21 38 -9 12 -33 33 -54 45 -20 13 -30
23 -22 23 8 0 29 -9 47 -20 19 -11 35 -15 38 -10 4 6 21 10 38 11 l32 1 -35
14 c-22 9 -26 12 -10 9 14 -2 30 -5 36 -5 7 0 14 -8 18 -17 3 -10 9 -23 12
-30 3 -7 -14 -31 -38 -54 -24 -23 -35 -38 -25 -35 11 3 29 9 42 12 17 4 24 15
29 45 6 37 8 39 45 39 25 0 44 7 55 19 17 18 16 20 -4 26 -28 9 -310 12 -310
4 0 -4 -16 -3 -35 1 -20 4 -38 4 -41 -1z"/>
<path d="M1995 1543 c-118 -14 -115 -13 -102 -34 9 -14 23 -19 54 -19 42 0 43
-1 49 -39 5 -29 12 -40 28 -44 11 -2 30 -8 41 -11 11 -4 1 10 -24 32 -42 39
-43 41 -30 70 10 23 23 32 53 40 l41 10 -40 -1 c-22 0 -53 -2 -70 -4z"/>
<path d="M156 1532 c-3 -4 16 -9 42 -10 59 -3 140 -21 148 -33 3 -6 0 -16 -6
-24 -10 -13 -7 -15 18 -15 20 0 36 -7 46 -22 16 -23 15 -24 31 27 6 22 -40 53
-98 64 -84 16 -175 22 -181 13z"/>
<path d="M2081 1529 c-54 -10 -65 -19 -23 -19 17 0 33 -4 36 -9 3 -5 23 0 43
10 21 10 44 19 53 19 8 0 -5 -10 -28 -21 -24 -12 -46 -28 -49 -35 -7 -18 -23
-18 -23 0 0 19 -17 29 -37 22 -14 -6 -14 -9 3 -27 10 -11 38 -29 63 -40 25
-12 41 -23 34 -26 -22 -8 -115 49 -126 77 -4 12 -6 12 -6 -2 -1 -9 13 -26 29
-38 17 -12 39 -38 51 -58 18 -33 19 -34 14 -9 -5 25 -4 27 13 18 30 -16 44 5
27 39 -12 23 -12 30 1 48 20 29 46 42 96 47 l43 4 -46 -13 c-26 -7 -52 -16
-58 -20 -20 -13 -29 -40 -20 -65 9 -23 10 -23 23 -5 8 10 12 22 10 26 -2 4 1
10 7 14 8 4 9 3 5 -4 -5 -8 3 -12 25 -12 26 0 30 2 19 15 -6 8 -9 18 -6 24 8
12 95 31 144 31 20 0 42 4 48 8 17 10 -311 11 -365 1z"/>
<path d="M55 1506 c75 -31 235 -64 235 -47 0 12 -49 26 -157 47 -91 17 -118
17 -78 0z"/>
<path d="M721 1506 c-12 -14 -8 -16 40 -16 65 0 177 -23 216 -44 36 -20 26
-20 -28 0 -54 19 -217 35 -281 27 -39 -4 -47 -9 -51 -30 -4 -21 -2 -24 17 -19
11 3 66 11 121 17 99 11 125 8 259 -26 17 -4 16 -2 -4 20 -13 14 -18 25 -12
25 6 0 21 -13 34 -30 13 -18 31 -30 45 -30 19 0 23 5 23 30 0 28 -3 30 -37 32
-65 2 -86 6 -164 26 -120 32 -163 36 -178 18z"/>
<path d="M2460 1505 c-104 -23 -150 -37 -150 -47 0 -12 61 -3 160 24 133 36
126 51 -10 23z"/>
<path d="M0 1506 c0 -11 134 -73 204 -95 71 -22 160 -27 186 -11 31 19 -9 35
-108 41 -85 6 -181 29 -264 64 -10 4 -18 4 -18 1z"/>
<path d="M242 1497 c26 -8 53 -19 62 -26 9 -8 16 -8 20 -2 9 14 -22 28 -79 35
l-50 6 47 -13z"/>
<path d="M2324 1501 c-46 -11 -58 -21 -44 -35 8 -8 13 -7 19 3 5 7 31 19 57
27 51 13 22 18 -32 5z"/>
<path d="M2550 1493 c-66 -30 -174 -53 -245 -53 -73 0 -115 -16 -101 -38 9
-15 103 -15 164 -1 49 12 232 93 232 103 0 9 -11 6 -50 -11z"/>
<path d="M517 1493 c-10 -10 -8 -43 2 -43 15 0 42 31 36 41 -7 11 -29 12 -38
2z"/>
<path d="M45 1448 c75 -54 249 -100 301 -79 29 11 29 11 2 6 -38 -7 -150 17
-228 50 -91 37 -98 39 -75 23z"/>
<path d="M2536 1449 c-58 -35 -185 -71 -250 -72 -55 -1 -63 -3 -40 -9 44 -13
131 0 209 32 86 34 135 60 115 60 -8 0 -23 -5 -34 -11z"/>
<path d="M735 1424 c-11 -2 -64 -14 -117 -26 -96 -21 -98 -22 -98 -50 0 -15 2
-28 4 -28 2 0 24 9 48 20 84 37 229 70 313 71 55 1 72 3 55 9 -25 8 -169 11
-205 4z"/>
<path d="M1660 1420 c-17 -6 0 -8 56 -9 81 -1 260 -43 324 -76 39 -20 42 -19
38 12 -2 23 -10 29 -48 40 -126 37 -308 53 -370 33z"/>
<path d="M96 1401 c5 -5 35 -22 67 -38 31 -16 55 -32 52 -34 -9 -10 142 -79
185 -85 58 -8 100 21 100 69 0 30 0 31 -15 11 -20 -30 -76 -54 -122 -53 l-38
1 45 9 c30 6 54 18 73 39 26 29 37 57 18 45 -5 -3 -12 -1 -16 5 -10 17 -25 11
-25 -10 0 -11 -10 -30 -21 -41 -19 -19 -30 -21 -79 -16 -32 3 -66 10 -77 17
-17 11 -17 11 2 5 11 -4 41 -9 66 -12 39 -5 50 -2 68 16 27 27 28 46 2 31 -47
-25 -223 2 -265 41 -6 5 -14 9 -20 9 -6 0 -6 -3 0 -9z"/>
<path d="M2446 1383 c-89 -37 -155 -47 -205 -29 -45 15 -52 7 -20 -25 17 -17
30 -20 68 -16 25 2 55 7 66 11 11 3 7 0 -10 -8 -45 -23 -121 -20 -145 4 -11
11 -20 29 -20 40 0 21 -15 27 -25 10 -4 -6 -11 -8 -16 -5 -19 12 -8 -16 19
-45 18 -21 42 -33 72 -39 l45 -9 -43 -1 c-49 -1 -93 18 -116 51 -16 22 -16 22
-16 -9 0 -57 49 -83 123 -65 46 12 187 82 165 82 -7 0 19 17 57 36 102 53 103
60 1 17z"/>
<path d="M1585 1391 c-3 -5 3 -12 14 -16 19 -6 38 -42 43 -84 2 -13 16 -33 31
-45 24 -18 44 -21 130 -22 56 -1 131 -5 167 -9 73 -7 195 16 153 29 -12 4 -25
16 -28 27 -9 28 -84 65 -99 48 -8 -9 -7 -11 5 -6 9 3 16 0 16 -8 0 -10 -5 -11
-18 -4 -10 5 -16 15 -13 23 3 7 -3 16 -13 19 -10 2 -27 8 -38 12 -18 7 -17 5
4 -18 22 -25 23 -28 8 -44 -8 -10 -16 -22 -17 -28 -1 -5 -3 -12 -5 -13 -5 -6
1 21 10 41 14 34 -40 75 -120 92 -95 20 -108 20 -95 -2 5 -10 16 -35 25 -56 8
-22 19 -36 25 -32 6 3 7 11 4 17 -5 7 -2 8 6 3 15 -9 6 9 -18 38 -14 16 -12
17 24 16 34 -1 36 -2 14 -9 l-25 -8 27 -1 c15 -1 29 -5 33 -11 3 -5 12 -7 20
-4 8 4 12 11 8 17 -3 6 -1 7 6 3 6 -4 9 -11 6 -16 -3 -4 6 -15 19 -24 17 -11
23 -22 19 -36 -7 -26 -19 -25 -70 4 -35 20 -45 22 -59 12 -15 -11 -11 -16 37
-39 29 -15 45 -27 36 -27 -49 0 -137 71 -137 109 0 9 -7 27 -16 39 -12 18 -25
22 -64 22 -27 0 -51 -4 -55 -9z m130 -80 c6 -1 3 -6 -5 -11 -13 -9 -13 -12 3
-24 9 -7 17 -17 17 -21 0 -5 -9 0 -20 10 -11 10 -20 15 -20 11 0 -4 -5 -4 -11
-1 -6 5 -4 12 8 21 16 13 16 14 1 8 -10 -3 -18 -2 -18 4 0 6 8 9 18 7 9 -2 22
-4 27 -4z m270 -21 c4 -6 27 -21 53 -35 55 -28 36 -33 -25 -6 -23 11 -43 18
-45 16 -2 -2 -4 5 -5 15 -2 21 12 27 22 10z"/>
<path d="M1613 1235 l-19 -23 27 -16 c30 -18 69 -74 69 -100 0 -18 5 -19 35
-6 19 7 19 8 2 15 -16 7 -47 54 -47 72 0 4 23 8 51 9 33 1 47 -2 40 -9 -5 -5
-24 -10 -40 -11 -38 -1 -39 -10 -5 -41 31 -29 83 -45 139 -44 l40 2 -46 6
c-43 6 -99 33 -99 48 0 4 10 17 21 29 l22 23 -29 6 c-83 19 -107 28 -123 44
-17 17 -19 17 -38 -4z"/>
<path d="M655 1160 c-66 -26 -138 -57 -160 -68 -22 -11 -66 -28 -98 -37 -78
-22 -66 -31 14 -10 35 9 85 15 111 13 34 -2 48 1 48 10 0 6 7 12 15 12 8 0 15
-7 15 -15 0 -8 13 -29 30 -47 l30 -33 -23 43 c-21 41 -21 44 -4 56 30 23 19
29 -40 23 -38 -4 -49 -3 -33 2 14 5 39 9 56 10 17 1 39 10 49 21 19 21 75 43
112 43 22 0 28 18 7 23 -5 1 -63 -19 -129 -46z"/>
<path d="M810 1191 c0 -6 9 -15 20 -21 44 -23 18 -55 -62 -76 l-53 -13 55 6
c63 6 95 20 129 57 l24 26 -34 0 c-19 0 -45 7 -57 16 -12 8 -22 11 -22 5z"/>
<path d="M1803 1171 c-13 -16 -23 -32 -23 -36 0 -7 64 -35 82 -35 7 0 -2 9
-19 20 -35 21 -43 47 -18 57 23 8 101 -16 121 -38 9 -11 27 -19 38 -19 24 0
100 -20 94 -25 -1 -1 -24 0 -50 4 -54 9 -77 1 -53 -19 19 -16 19 -31 1 -56
-13 -18 -14 -17 -13 16 2 26 -2 34 -13 32 -8 -2 -41 -3 -72 -3 -57 0 -83 -13
-57 -30 8 -5 31 -9 52 -9 34 0 37 -2 37 -27 1 -27 1 -27 15 -9 25 33 18 46
-22 47 -21 1 -49 4 -63 9 -16 5 -2 7 43 6 68 -1 68 -1 65 -28 -3 -15 -1 -25 3
-23 4 3 9 -2 13 -10 6 -16 -20 -34 -44 -30 -9 2 -16 -5 -16 -15 0 -10 4 -16 8
-14 4 3 8 1 8 -5 0 -11 79 -38 135 -46 22 -3 63 -1 90 4 30 5 39 9 23 10 -62
3 -132 24 -154 48 -12 13 -25 20 -28 14 -14 -22 25 -42 119 -64 13 -3 8 -5
-12 -6 -41 -1 -111 26 -123 48 -6 13 -4 21 10 31 10 7 21 12 25 11 12 -4 25
22 25 49 0 24 -1 24 -20 -7 -11 -18 -24 -33 -29 -33 -6 0 2 20 17 44 22 37 29
42 38 30 8 -9 21 -12 42 -8 16 3 62 -1 102 -10 88 -20 104 -14 23 9 -32 9 -80
28 -108 42 -59 29 -211 89 -246 97 -18 4 -29 -1 -46 -23z"/>
<path d="M704 1151 c-52 -31 -54 -45 -6 -39 38 6 91 34 92 51 0 14 -56 7 -86
-12z"/>
<path d="M800 1159 c0 -8 -13 -23 -29 -34 -42 -28 -31 -30 25 -6 26 12 45 22
43 24 -2 1 -12 9 -21 16 -15 11 -18 11 -18 0z"/>
<path d="M1830 1157 c0 -28 100 -67 109 -42 5 15 -39 44 -76 51 -26 5 -33 3
-33 -9z"/>
<path d="M640 1062 c0 -9 5 -24 10 -32 8 -12 10 -11 10 8 0 21 4 22 63 21 56
-1 59 -2 27 -10 -19 -5 -45 -6 -57 -4 -27 6 -27 5 -9 -40 14 -32 14 -35 -2
-35 -25 0 -61 27 -83 64 -16 27 -19 28 -19 9 0 -31 10 -53 25 -53 6 0 19 -8
28 -18 23 -26 5 -49 -53 -67 -25 -7 -36 -14 -24 -14 33 -1 121 28 135 45 7 9
12 34 12 55 -2 35 1 39 22 39 13 0 36 5 52 11 39 14 17 25 -69 32 -60 6 -68 4
-68 -11z"/>
<path d="M832 1068 c-7 -7 -12 -23 -12 -35 0 -13 -7 -38 -16 -54 -28 -55 -159
-99 -342 -115 -45 -3 -81 -9 -79 -11 12 -11 203 -2 268 13 83 18 187 62 207
87 11 13 11 23 2 52 -7 20 -10 45 -7 56 6 22 -3 25 -21 7z"/>
<path d="M871 1066 c-9 -11 -8 -23 5 -55 15 -37 15 -43 1 -65 -20 -30 -82 -59
-174 -81 -40 -10 -73 -20 -73 -23 0 -8 132 9 195 25 49 12 108 36 123 48 2 2
-4 18 -13 36 -10 17 -20 52 -24 77 -6 48 -21 62 -40 38z"/>
<path d="M1760 1050 c0 -16 -5 -41 -10 -56 -19 -48 28 -81 170 -121 98 -28
293 -43 304 -24 5 7 -7 11 -38 11 -74 0 -197 20 -264 43 -35 12 -62 24 -61 27
2 3 -4 16 -13 29 -9 13 -14 30 -11 37 6 15 53 20 53 5 0 -5 -9 -7 -20 -4 -15
4 -20 0 -20 -13 0 -15 2 -16 9 -5 7 11 9 11 14 0 4 -12 7 -11 16 1 19 27 12
40 -23 40 -26 0 -35 -5 -39 -22 -4 -14 0 -29 10 -40 9 -11 11 -18 5 -18 -24 0
-48 54 -51 116 -1 7 -8 14 -16 18 -11 4 -15 -2 -15 -24z"/>
<path d="M1700 1032 c0 -21 -9 -55 -20 -77 -11 -22 -20 -40 -20 -42 0 -1 20
-11 44 -21 60 -27 175 -52 233 -51 l48 1 -75 19 c-153 39 -206 85 -174 148 19
37 13 61 -16 61 -17 0 -20 -6 -20 -38z"/>
<path d="M425 1035 c-103 -20 -146 -35 -139 -47 5 -8 2 -9 -9 -5 -10 3 -17 3
-17 -1 0 -5 -22 -16 -50 -26 -66 -24 -67 -46 -1 -46 28 0 53 5 56 11 4 6 19 9
33 8 15 -1 35 2 45 6 9 4 26 5 37 2 11 -3 20 -1 20 5 0 7 -28 8 -77 5 -58 -5
-69 -4 -43 3 19 5 69 9 111 9 42 -1 84 3 94 8 26 15 2 25 -30 13 -14 -5 -54
-10 -88 -9 -61 1 -62 1 -22 10 22 6 49 8 60 5 11 -3 31 2 45 10 24 14 22 15
-35 9 -32 -3 -71 -8 -85 -11 l-25 -4 25 11 c14 6 58 13 98 14 40 2 76 6 79 9
4 3 18 6 31 6 14 0 23 2 21 5 -11 11 -79 11 -134 0z"/>
<path d="M2056 1031 c-3 -4 6 -6 19 -3 16 3 27 -1 31 -11 4 -12 11 -13 32 -6
16 5 45 5 72 0 l45 -9 -60 -2 c-46 -2 -54 -4 -35 -10 14 -4 48 -9 75 -10 28
-1 58 -5 68 -8 20 -9 -110 -5 -163 4 -29 5 -33 4 -22 -7 7 -7 32 -14 56 -14
24 0 42 -3 39 -7 -2 -5 3 -8 12 -8 9 0 14 -4 11 -9 -3 -4 11 -7 32 -5 20 1 41
-1 47 -5 15 -12 118 -22 133 -12 10 6 5 14 -20 29 -18 11 -45 24 -60 27 -16 4
-26 10 -23 14 9 16 -163 61 -237 61 -26 0 -49 -4 -52 -9z m302 -91 c16 -5 -1
-6 -43 -3 -38 3 -74 10 -80 15 -11 11 75 2 123 -12z"/>
<path d="M514 1009 c-4 -7 3 -19 15 -29 20 -14 21 -18 7 -29 -8 -7 -62 -19
-118 -28 -57 -8 -118 -16 -137 -19 -54 -8 -23 -22 64 -28 91 -7 88 1 -6 14
l-64 9 75 -4 c41 -3 100 -7 130 -9 39 -4 45 -3 20 2 l-35 8 46 6 c83 13 143
52 109 73 -5 3 -10 -1 -10 -9 0 -30 -116 -67 -198 -65 -27 1 -19 4 28 11 36 5
84 16 107 25 39 14 42 18 36 42 -3 14 -8 29 -10 34 -7 11 -51 8 -59 -4z"/>
<path d="M710 1008 c0 -22 17 -41 24 -29 4 6 12 9 17 6 5 -4 9 1 9 10 0 13 -4
14 -20 5 -12 -6 -20 -7 -20 -1 0 5 6 12 13 14 7 3 5 6 -5 6 -10 1 -18 -5 -18
-11z"/>
<path d="M2055 1012 c-6 -4 -16 -20 -23 -35 -12 -27 -11 -29 23 -43 19 -7 81
-20 137 -28 85 -12 94 -14 53 -16 -27 -1 -61 -6 -75 -11 -29 -10 115 -2 170
10 33 7 32 8 -25 14 -128 14 -215 30 -232 43 -17 13 -17 15 1 29 31 24 3 60
-29 37z"/>
<path d="M1377 658 l-29 -10 32 -33 32 -33 -34 -36 c-46 -48 -49 -65 -23 -185
11 -55 15 -100 11 -134 -8 -56 -36 -129 -43 -110 -2 7 0 21 6 31 8 15 7 23 -4
32 -13 11 -15 5 -17 -41 l-1 -54 -6 54 c-5 45 -8 52 -18 39 -10 -11 -10 -23
-2 -47 17 -49 4 -48 -16 1 -26 64 -30 161 -10 250 10 46 14 86 9 100 -4 13 -7
26 -6 30 1 3 -14 20 -33 37 l-34 30 30 32 c32 34 26 50 -16 48 -17 -1 -17 -2
-2 -6 22 -6 22 -16 -4 -39 -42 -38 -43 -52 -4 -68 21 -9 35 -22 36 -33 0 -10
2 -36 4 -58 1 -22 -4 -61 -12 -87 -10 -31 -14 -72 -11 -115 3 -59 9 -77 47
-135 23 -38 47 -68 52 -68 6 0 8 4 4 10 -3 5 10 30 29 55 60 78 71 163 35 261
-12 31 -17 59 -13 63 5 3 10 23 10 43 1 43 18 68 45 68 28 0 23 25 -12 65 -22
25 -27 35 -16 35 9 0 19 5 22 10 7 12 -1 12 -38 -2z"/>
<path d="M1286 387 c-6 -25 -4 -60 5 -100 13 -62 13 -62 21 -27 9 43 12 149 4
157 -3 4 -7 -23 -8 -58 l-1 -64 -7 65 c-5 64 -6 64 -14 27z"/>
<path d="M1263 268 c2 -77 11 -100 22 -55 3 12 -1 47 -9 77 l-15 55 2 -77z"/>
<path d="M1331 293 c-13 -47 -14 -74 -1 -93 8 -11 10 -8 8 15 0 17 2 49 6 73
10 52 1 55 -13 5z"/>
</g>
</svg>
