<?xml version="1.0" standalone="no"?>
<!DOCTYPE svg PUBLIC "-//W3C//DTD SVG 20010904//EN"
 "http://www.w3.org/TR/2001/REC-SVG-20010904/DTD/svg10.dtd">
<svg version="1.0" xmlns="http://www.w3.org/2000/svg"
 width="266.000000pt" height="190.000000pt" viewBox="0 0 266.000000 190.000000"
 preserveAspectRatio="xMidYMid meet">
<metadata>
Created by potrace 1.10, written by Peter Selinger 2001-2011
</metadata>
<g transform="translate(0.000000,190.000000) scale(0.100000,-0.100000)"
fill="#000000" stroke="none">
<path d="M178 1545 c-5 -6 95 -345 102 -345 6 0 100 242 100 258 0 6 4 13 8
16 5 3 31 -58 58 -134 26 -77 51 -140 54 -140 3 0 27 66 54 148 27 81 55 159
63 175 13 26 13 27 -12 27 -15 0 -23 -4 -20 -10 6 -10 -61 -249 -75 -263 -4
-5 -29 55 -56 132 -26 78 -51 138 -55 134 -3 -5 -28 -68 -54 -140 -27 -73 -51
-133 -54 -133 -10 0 -73 249 -67 265 4 11 -1 15 -18 15 -12 0 -25 -2 -28 -5z"/>
<path d="M1295 1501 c-46 -12 -72 -28 -96 -63 -31 -43 -33 -125 -3 -164 40
-54 70 -68 147 -72 82 -3 93 1 102 43 l6 30 -15 -26 c-24 -42 -96 -47 -164
-10 -36 19 -62 74 -62 131 0 46 4 56 34 86 30 30 40 34 85 34 63 0 98 -15 110
-49 9 -25 9 -24 10 11 1 20 -2 39 -6 41 -17 10 -120 15 -148 8z"/>
<path d="M1610 1499 c-93 -27 -137 -131 -92 -219 26 -52 74 -80 137 -80 88 0
154 60 162 147 4 39 0 55 -19 82 -41 62 -118 90 -188 70z m111 -26 c37 -22 59
-69 59 -128 0 -57 -21 -100 -60 -120 -36 -19 -61 -19 -105 -1 -50 21 -75 68
-75 140 0 53 3 61 34 92 28 28 42 34 76 34 23 0 55 -8 71 -17z"/>
<path d="M703 1493 c15 -4 17 -19 17 -138 0 -117 -2 -135 -17 -144 -13 -7 8
-9 72 -8 88 2 90 2 92 27 1 14 0 18 -3 8 -4 -14 -16 -18 -55 -18 -32 0 -49 4
-49 13 -1 6 -2 36 -3 65 l-2 52 41 0 c25 0 44 -5 47 -12 2 -7 6 -2 9 12 4 25
3 25 -50 21 -48 -3 -54 -1 -48 14 3 9 6 37 6 61 0 39 3 44 23 44 38 0 66 -11
70 -29 3 -9 5 -4 6 12 l1 27 -87 -1 c-49 -1 -80 -3 -70 -6z"/>
<path d="M963 1493 c15 -4 17 -19 17 -138 0 -115 -2 -135 -17 -143 -11 -7 15
-9 78 -8 92 1 94 1 97 26 2 22 1 23 -8 8 -15 -24 -105 -26 -114 -2 -3 9 -6 67
-6 129 0 98 2 115 18 124 13 8 5 10 -33 10 -27 -1 -42 -3 -32 -6z"/>
<path d="M1927 1478 c-3 -13 -11 -75 -17 -138 -9 -82 -17 -119 -28 -127 -13
-11 -9 -13 29 -12 24 1 36 3 26 6 -16 4 -17 13 -11 101 4 54 9 101 11 105 3 5
30 -42 61 -105 l55 -113 54 109 c29 60 55 112 58 114 7 7 14 -36 20 -130 l7
-88 41 0 c40 0 41 1 17 13 -23 12 -26 21 -38 127 -21 185 -16 182 -87 38 l-62
-128 -63 125 c-34 69 -63 125 -65 125 -2 0 -5 -10 -8 -22z"/>
<path d="M2328 1493 c21 -4 22 -7 22 -138 0 -106 -3 -136 -14 -142 -9 -5 19
-9 67 -11 82 -2 96 4 97 37 0 11 -3 10 -13 -3 -10 -13 -24 -17 -57 -14 l-45 3
-3 63 -3 62 45 0 c34 0 46 -4 49 -17 3 -11 5 -7 6 10 1 26 -1 27 -49 27 l-50
0 0 61 0 61 43 -7 c23 -4 48 -12 55 -17 9 -8 12 -5 12 11 0 20 -4 21 -92 20
-51 -1 -83 -4 -70 -6z"/>
<path d="M1005 1069 c-22 -12 -52 -27 -66 -35 -43 -23 -60 -76 -57 -177 3 -82
1 -90 -19 -107 -23 -18 -55 -17 -80 3 -14 10 -17 55 -5 74 11 18 62 34 85 27
13 -4 17 -2 13 5 -12 18 -71 12 -100 -10 -30 -23 -33 -56 -11 -99 11 -21 23
-30 40 -30 34 0 31 -13 -10 -41 -18 -13 -37 -34 -40 -47 -4 -16 -11 -22 -20
-18 -22 8 -19 -42 5 -92 11 -22 20 -45 20 -50 0 -4 14 -19 31 -31 33 -25 122
-34 167 -18 19 7 22 5 22 -18 0 -46 28 -85 60 -84 10 0 8 3 -5 8 -32 14 -51
56 -37 86 6 14 15 24 19 23 5 0 17 3 27 7 48 21 92 -44 66 -97 -10 -20 -8 -19
14 5 21 23 24 32 16 53 -9 23 -8 25 12 18 57 -18 91 -21 128 -12 41 11 94 54
84 69 -3 5 2 16 10 25 10 10 16 33 16 65 0 31 4 48 10 44 17 -11 11 21 -7 38
-47 43 -61 54 -77 60 -16 7 -16 9 5 26 16 13 23 29 23 54 0 63 -53 99 -107 72
-16 -8 -31 -15 -31 -15 -1 0 -1 18 -1 39 0 22 3 37 8 34 13 -8 8 10 -8 26 -8
9 -26 30 -40 47 -14 18 -43 41 -66 52 -22 11 -39 24 -39 28 3 16 -16 14 -55
-7z m115 -64 c66 -34 93 -113 59 -178 -25 -48 -24 -59 2 -27 19 24 20 24 14 3
-3 -12 -1 -32 5 -44 18 -32 -9 -46 -32 -18 -10 12 -18 16 -18 11 0 -6 5 -14
11 -18 8 -4 6 -10 -7 -17 -13 -7 -19 -7 -22 3 -3 7 -13 21 -24 32 -16 16 -28
19 -64 13 -48 -7 -58 4 -24 28 11 8 18 16 15 19 -3 3 1 10 8 17 11 8 18 6 32
-9 10 -11 25 -20 34 -20 14 1 13 2 -1 11 -10 5 -18 17 -18 25 0 9 -5 12 -12 8
-8 -5 -9 0 -6 14 4 13 1 22 -5 22 -7 0 -5 5 3 10 8 5 13 10 10 11 -3 0 -13 2
-22 4 -10 2 -18 -3 -18 -11 0 -8 -4 -14 -8 -14 -5 0 -14 -17 -20 -37 -20 -63
-26 -68 -54 -41 -55 51 -60 90 -22 155 41 70 108 87 184 48z m196 -171 c36
-47 -53 -123 -94 -82 -19 19 -14 66 9 89 23 23 65 20 85 -7z m-367 -91 c-6 -7
-24 -13 -39 -13 l-28 0 16 35 16 35 23 -22 c17 -16 20 -24 12 -35z m146 -10
c30 -33 30 -33 4 -77 -22 -38 -37 -43 -72 -24 -20 10 -21 10 -8 -5 7 -10 22
-17 32 -17 11 0 19 -4 19 -9 0 -14 -58 -21 -116 -15 -53 7 -53 7 -41 33 23 50
72 131 80 131 12 0 8 -17 -7 -32 -11 -12 -11 -17 0 -33 8 -10 14 -15 14 -11 0
5 8 2 17 -5 17 -13 17 -13 0 13 -21 33 -13 58 20 58 13 0 21 4 18 10 -13 21
15 9 40 -17z m-175 -34 c0 -6 -16 -34 -35 -63 -40 -61 -40 -60 -19 -80 11 -12
36 -16 95 -16 l79 0 -16 -25 c-9 -13 -24 -27 -35 -30 -10 -4 -19 -13 -19 -20
0 -16 -59 -30 -92 -21 -33 8 -95 71 -101 102 -8 43 12 93 50 129 44 41 93 54
93 24z m392 -30 c24 -13 48 -67 48 -109 0 -57 -25 -98 -75 -122 -41 -20 -50
-21 -101 -10 -31 6 -62 19 -69 28 -8 12 -22 15 -48 12 -20 -2 -37 -3 -37 -2 0
1 7 19 16 40 l16 38 19 -25 c15 -19 19 -21 19 -6 0 12 8 17 28 18 162 5 185
27 117 106 -19 23 -35 46 -35 51 0 11 70 -2 102 -19z m-98 -12 c11 -17 20 -39
20 -47 1 -8 8 -15 16 -15 8 0 16 -8 18 -17 3 -17 -8 -21 -68 -21 -32 0 -100
16 -100 24 0 4 6 14 13 21 8 7 12 19 10 25 -5 15 41 63 59 63 7 0 22 -15 32
-33z"/>
<path d="M1537 993 c-3 -16 -15 -120 -27 -233 -12 -113 -26 -215 -31 -227 -5
-13 -17 -23 -29 -23 -11 0 -20 -3 -20 -7 0 -5 33 -8 74 -8 41 0 72 3 69 8 -2
4 -13 7 -24 7 -15 0 -19 7 -19 38 0 64 24 332 29 332 4 -1 26 -45 51 -98 61
-132 140 -282 149 -282 5 0 50 87 102 194 51 107 94 194 96 193 4 -5 33 -301
33 -342 l0 -42 68 -6 c37 -3 71 -1 77 4 5 5 -5 9 -26 9 -27 0 -38 6 -47 23 -6
12 -23 126 -38 252 -14 127 -28 232 -31 235 -3 3 -8 -1 -11 -9 -16 -45 -202
-411 -209 -411 -4 1 -55 95 -113 210 -58 115 -108 209 -111 209 -4 1 -9 -11
-12 -26z"/>
<path d="M2355 1010 c-82 -3 -138 -7 -124 -8 18 -1 29 -9 33 -24 8 -30 8 -382
0 -430 -5 -28 -11 -38 -25 -38 -11 0 -19 -3 -19 -7 0 -5 66 -7 147 -6 146 1
148 1 154 25 4 12 7 34 8 48 0 23 -1 23 -13 -6 -8 -17 -21 -34 -31 -38 -29
-11 -130 -7 -143 6 -8 8 -12 49 -12 120 l0 108 49 0 c67 0 101 -14 101 -41 0
-35 7 -18 13 34 6 45 6 47 -12 37 -11 -5 -49 -10 -85 -10 l-66 0 0 105 0 105
48 -1 c78 -2 105 -11 113 -39 4 -14 8 -20 8 -15 1 6 4 27 7 48 3 20 4 36 2 35
-2 -1 -70 -5 -153 -8z"/>
<path d="M160 1003 c14 -3 28 -10 32 -17 9 -13 11 -401 2 -445 -5 -21 -12 -31
-25 -31 -11 0 -19 -3 -19 -7 0 -5 38 -8 85 -8 81 0 116 10 58 17 l-28 3 -3
128 -3 127 156 0 155 0 0 -99 c0 -126 -7 -161 -31 -161 -11 0 -19 -3 -19 -7 0
-5 41 -8 90 -9 86 -1 125 11 58 18 l-33 3 0 240 0 239 25 7 c14 4 -15 7 -65 7
-49 -1 -78 -3 -64 -5 33 -5 39 -23 39 -130 l0 -83 -155 0 -156 0 3 102 c3 99
4 102 28 109 14 4 -15 7 -65 7 -50 -1 -79 -3 -65 -5z"/>
</g>
</svg>
