<?xml version="1.0" standalone="no"?>
<!DOCTYPE svg PUBLIC "-//W3C//DTD SVG 20010904//EN"
 "http://www.w3.org/TR/2001/REC-SVG-20010904/DTD/svg10.dtd">
<svg version="1.0" xmlns="http://www.w3.org/2000/svg"
 width="133.000000pt" height="144.000000pt" viewBox="0 0 133.000000 144.000000"
 preserveAspectRatio="xMidYMid meet">
<metadata>
Created by potrace 1.10, written by Peter Selinger 2001-2011
</metadata>
<g transform="translate(0.000000,144.000000) scale(0.100000,-0.100000)"
fill="#000000" stroke="none">
<path d="M582 1364 c-12 -8 -22 -12 -22 -8 0 4 -9 -2 -20 -14 -12 -12 -25 -22
-30 -22 -5 0 -15 -7 -24 -15 -8 -8 -23 -16 -34 -18 -28 -4 -48 -23 -63 -60 -7
-18 -17 -35 -21 -38 -5 -3 -13 -45 -19 -92 -11 -80 -10 -89 6 -107 26 -29 11
-36 -21 -11 -56 44 -162 13 -203 -60 -26 -45 -24 -71 8 -143 18 -41 21 -43 81
-55 l63 -13 -34 -21 c-19 -11 -37 -20 -42 -19 -4 1 -7 -5 -7 -15 0 -9 -2 -14
-5 -11 -9 9 -65 -49 -65 -66 0 -9 -5 -16 -11 -16 -6 0 -8 -9 -4 -21 5 -16 3
-20 -6 -17 -8 3 -13 17 -12 32 1 14 -3 26 -8 26 -6 0 -8 -4 -4 -9 3 -5 -2 -16
-10 -24 -8 -9 -15 -32 -15 -53 0 -41 19 -104 32 -104 4 0 8 -8 8 -18 0 -10 8
-28 17 -42 9 -13 17 -35 17 -49 1 -39 95 -98 184 -115 75 -14 102 -10 200 30
32 13 42 8 22 -12 -16 -16 -15 -76 2 -109 24 -46 52 -66 100 -71 38 -3 39 -3
11 5 -38 10 -81 42 -76 57 2 7 -3 19 -12 27 -21 22 -19 59 6 91 20 25 47 38
33 15 -5 -8 -1 -8 14 0 12 6 24 16 27 21 15 24 95 2 127 -35 32 -38 11 -155
-29 -155 -6 0 -15 -4 -18 -10 -12 -19 48 10 68 33 27 32 49 77 37 77 -5 0 -10
8 -10 18 0 24 -56 108 -78 117 -22 10 -102 6 -124 -6 -11 -6 -5 10 18 48 19
31 34 63 34 70 0 7 8 13 18 13 17 0 57 -72 53 -97 -1 -6 2 -14 7 -17 9 -5 7
23 -4 79 l-5 30 143 2 143 2 23 28 c40 49 38 64 -17 136 -27 37 -59 77 -71 89
-11 12 -20 25 -20 30 0 12 28 10 35 -2 4 -6 15 -8 25 -5 10 3 21 2 24 -3 3 -5
16 -8 28 -5 42 7 100 -37 130 -97 32 -65 44 -178 22 -207 -7 -10 -14 -26 -14
-35 0 -25 -45 -73 -98 -104 -41 -25 -56 -28 -122 -26 -64 1 -88 3 -132 11 -5
0 -8 8 -8 16 0 9 -6 12 -15 9 -8 -4 -13 -10 -10 -14 8 -14 67 -40 75 -35 5 3
10 0 12 -6 2 -7 36 -11 88 -12 85 0 132 13 151 45 4 7 11 10 14 6 4 -3 -1 -19
-11 -34 -12 -18 -14 -26 -5 -23 7 3 12 8 11 13 -1 4 17 28 41 52 31 32 43 53
45 79 2 19 8 43 14 53 9 13 10 14 7 1 -3 -9 -2 -21 3 -28 5 -9 9 -4 12 13 3
15 1 29 -3 32 -5 3 -9 11 -9 17 0 7 4 6 10 -3 8 -12 10 -9 10 13 0 15 -1 28
-2 30 -1 1 3 11 9 22 8 15 8 30 -2 58 -10 29 -10 37 0 37 6 0 17 -10 22 -22
10 -20 11 -19 8 13 -2 42 -40 109 -61 109 -8 0 -14 3 -14 8 0 4 -8 12 -18 17
-44 24 -92 58 -92 64 0 4 11 14 25 21 45 24 62 134 28 190 -8 14 -26 33 -40
44 -34 25 -116 25 -152 -1 -54 -40 -82 -142 -54 -197 14 -27 14 -31 -3 -43
-25 -18 -30 -17 -54 17 -12 17 -26 30 -32 30 -7 0 -6 -5 2 -15 6 -8 9 -19 5
-25 -4 -6 -1 -9 6 -8 24 6 19 -19 -7 -31 -15 -6 -27 -10 -28 -9 -35 85 -77
113 -151 104 -87 -10 -108 -8 -100 11 3 8 5 17 5 19 0 2 7 4 15 4 8 0 15 5 15
10 0 6 12 10 27 10 24 0 25 1 10 13 -16 11 -16 14 -2 35 21 30 31 28 76 -13
22 -19 46 -35 54 -35 8 0 15 -7 15 -15 0 -8 7 -15 15 -15 19 0 19 16 0 24 -8
3 -14 11 -13 18 2 7 -2 12 -8 13 -5 0 -27 16 -49 37 -38 36 -38 36 -21 63 16
24 16 26 0 23 -9 -2 -19 3 -21 10 -3 6 2 12 11 12 9 0 16 7 16 15 0 11 -11 15
-40 15 -35 0 -39 -3 -37 -22 1 -14 -3 -22 -10 -21 -7 2 -17 -16 -24 -40 -6
-23 -17 -53 -25 -67 -8 -14 -19 -38 -24 -54 -10 -26 -12 -28 -26 -14 -8 8 -17
24 -18 34 -2 13 -10 18 -25 16 -14 -2 -24 4 -31 20 -6 13 -17 34 -25 48 -20
34 -19 106 2 141 10 16 21 29 25 29 4 0 5 6 2 14 -3 7 2 16 10 19 9 4 16 14
16 24 0 27 63 72 113 82 58 10 197 -11 197 -30 0 -5 5 -9 11 -9 17 0 74 -60
93 -98 9 -17 19 -58 22 -91 6 -54 3 -66 -27 -128 -18 -37 -35 -72 -38 -78 -2
-5 6 -1 19 10 32 27 80 137 80 180 0 20 -5 45 -10 56 -6 11 -8 24 -4 31 4 6
12 -1 20 -18 l13 -29 -6 30 c-8 44 -32 99 -40 92 -3 -4 0 -13 7 -21 6 -9 10
-21 8 -27 -2 -7 -16 8 -31 33 -15 25 -47 63 -73 84 -25 22 -53 46 -61 54 -17
15 -34 21 -70 24 -33 2 -28 26 5 27 l27 1 -25 8 c-42 14 -104 11 -128 -6z
m-327 -384 c-3 -6 5 -10 19 -10 41 0 74 -21 86 -53 13 -38 13 -50 0 -42 -7 4
-10 -7 -8 -29 4 -64 -76 -114 -136 -84 -11 6 -27 14 -35 18 -22 10 -34 56 -27
104 7 45 32 66 77 66 16 0 19 5 14 20 -4 12 -2 20 5 20 6 0 8 -4 5 -10z m850
-20 c15 -6 29 -19 32 -30 3 -11 9 -20 14 -20 5 0 9 -7 9 -16 0 -8 -4 -13 -9
-9 -6 3 -11 -12 -13 -32 -2 -28 -9 -41 -26 -48 -12 -5 -25 -18 -28 -27 -6 -19
-11 -21 -64 -18 -52 3 -70 24 -70 82 0 53 19 101 47 117 23 13 75 14 108 1z
m-630 -196 c-11 -17 -25 -24 -48 -24 -17 0 -42 -3 -54 -6 -14 -4 -23 -2 -23 5
0 6 10 11 23 11 16 0 18 3 9 9 -12 7 -11 14 2 39 9 17 16 42 16 56 0 24 2 23
46 -20 44 -44 45 -46 29 -70z m87 0 c6 -6 -13 -64 -22 -64 -22 1 -29 18 -17
43 11 25 27 34 39 21z m171 -12 c-2 -6 8 -19 22 -28 35 -23 32 -51 -12 -118
-33 -49 -41 -56 -70 -56 -18 0 -33 4 -33 10 0 5 -6 7 -13 4 -14 -5 -50 38 -62
76 l-8 24 38 -28 c27 -21 34 -24 27 -10 -6 11 -22 30 -36 43 -14 14 -26 30
-26 36 0 20 41 50 64 47 12 -2 33 2 46 7 32 13 66 9 63 -7z m-310 -54 c5 -15
-33 -86 -74 -140 -16 -20 -29 -40 -29 -44 0 -4 -7 -15 -15 -24 -14 -16 -14
-20 2 -48 17 -31 66 -57 84 -46 5 3 17 0 28 -6 13 -7 22 -7 26 0 8 12 195 13
195 1 0 -5 -7 -14 -15 -21 -8 -7 -15 -18 -15 -24 -1 -15 -44 -45 -72 -49 -15
-3 -23 -11 -23 -23 0 -28 -60 -54 -120 -52 -54 1 -74 10 -126 57 -18 17 -40
33 -49 36 -8 3 -24 24 -35 47 -25 51 -24 127 0 183 10 22 19 42 19 45 4 18 19
28 34 24 13 -5 14 -3 4 4 -10 7 -4 16 26 40 22 18 50 36 63 41 35 14 87 13 92
-1z m127 -58 c8 -23 20 -44 27 -47 7 -3 10 -9 7 -15 -8 -12 30 -40 75 -54 52
-16 54 -37 2 -32 -25 2 -42 -1 -45 -8 -6 -16 -104 -13 -115 4 -5 9 -20 10 -57
3 -56 -11 -63 -8 -46 19 7 11 12 25 12 31 0 6 21 44 46 85 53 83 70 86 94 14z
m379 2 c7 -16 27 -46 46 -68 35 -40 47 -67 20 -44 -26 21 -16 -3 16 -40 23
-27 26 -29 14 -7 -21 33 -4 37 18 3 27 -41 5 -55 -88 -56 -81 -1 -102 1 -120
11 -5 4 -29 5 -52 4 -33 -1 -40 2 -36 14 11 37 27 61 40 61 16 0 17 12 1 28
-16 16 35 80 83 104 44 23 45 23 58 -10z m-543 -183 c19 -21 19 -21 -6 -18
-14 2 -26 12 -28 22 -5 23 11 22 34 -4z m332 -11 c21 -21 13 -27 -33 -24 -77
6 -72 16 16 35 3 0 10 -4 17 -11z"/>
</g>
</svg>
