<?xml version="1.0" standalone="no"?>
<!DOCTYPE svg PUBLIC "-//W3C//DTD SVG 20010904//EN"
 "http://www.w3.org/TR/2001/REC-SVG-20010904/DTD/svg10.dtd">
<svg version="1.0" xmlns="http://www.w3.org/2000/svg"
 width="187.000000pt" height="270.000000pt" viewBox="0 0 187.000000 270.000000"
 preserveAspectRatio="xMidYMid meet">
<metadata>
Created by potrace 1.10, written by Peter Selinger 2001-2011
</metadata>
<g transform="translate(0.000000,270.000000) scale(0.100000,-0.100000)"
fill="#000000" stroke="none">
<path d="M925 2690 c-3 -5 -15 -10 -26 -10 -10 0 -19 -4 -19 -9 0 -5 17 -4 40
1 22 6 40 14 40 19 0 12 -27 11 -35 -1z"/>
<path d="M1034 2685 c11 -8 16 -15 10 -15 -5 0 -2 -5 6 -10 20 -13 50 -13 50
0 0 6 -7 10 -15 10 -9 0 -18 7 -21 15 -4 8 -16 15 -28 15 -21 -1 -21 -1 -2
-15z"/>
<path d="M1148 2693 c-44 -7 -34 -28 12 -27 32 0 40 -3 35 -14 -3 -8 2 -20 11
-27 11 -7 17 -26 17 -46 0 -19 2 -28 4 -22 4 10 8 9 20 -2 8 -8 19 -13 24 -10
5 4 9 -10 9 -29 0 -20 5 -36 10 -36 6 0 10 14 10 31 0 28 3 31 23 25 12 -3 30
-6 39 -6 10 0 31 -19 48 -42 26 -35 30 -38 30 -18 0 12 -14 38 -30 57 -28 31
-33 62 -8 47 6 -4 8 1 3 16 -5 15 -3 20 3 16 15 -9 26 13 28 57 1 25 -3 37
-12 37 -8 0 -14 -10 -14 -24 0 -32 -46 -86 -73 -86 -16 0 -18 -3 -9 -12 8 -8
15 -8 28 3 14 12 16 11 13 -6 -4 -21 -49 -35 -49 -16 0 6 -13 11 -29 11 -44 0
-57 22 -42 71 13 42 10 56 -8 45 -6 -4 -8 -13 -4 -21 3 -8 0 -15 -6 -15 -6 0
-11 11 -11 25 0 26 -7 28 -72 18z"/>
<path d="M900 2531 c0 -6 -7 -11 -16 -11 -8 0 -12 -5 -8 -11 4 -8 -8 -10 -40
-8 -25 2 -46 1 -46 -3 0 -5 6 -8 14 -8 7 0 27 -7 42 -15 27 -14 29 -14 32 6 5
27 25 34 54 18 13 -7 29 -12 36 -11 17 4 15 -15 -3 -22 -17 -6 -20 -26 -4 -26
5 0 7 5 4 10 -3 6 1 10 9 10 9 0 16 5 16 10 0 6 3 9 8 9 18 -3 32 2 32 11 0 6
-11 10 -25 10 -22 0 -30 9 -26 33 2 11 -17 8 -25 -4 -4 -8 -9 -7 -15 2 -7 12
-9 12 -9 0 0 -11 -3 -11 -15 -1 -10 9 -15 9 -15 1z"/>
<path d="M703 2513 c-23 -16 -33 -40 -11 -27 7 4 22 9 35 10 21 2 22 1 7 -21
-11 -16 -12 -25 -4 -30 6 -4 14 -4 17 -1 4 3 0 6 -7 6 -8 0 -3 8 10 20 13 11
20 20 15 20 -4 0 -1 8 6 17 13 15 11 16 -19 10 -21 -4 -31 -3 -27 3 8 13 4 12
-22 -7z"/>
<path d="M605 2481 c-3 -5 0 -13 6 -16 7 -5 3 -14 -10 -27 -12 -10 -25 -17
-29 -14 -5 3 -9 -1 -9 -8 0 -8 9 -11 24 -8 13 2 23 8 23 13 0 5 12 15 28 23
15 8 22 15 15 16 -6 0 -18 7 -27 15 -8 9 -17 11 -21 6z"/>
<path d="M1150 2426 c0 -13 20 -26 41 -26 14 0 1 18 -22 30 -15 8 -19 7 -19
-4z"/>
<path d="M1316 2426 c3 -9 11 -16 18 -16 6 0 21 -3 34 -6 12 -4 22 -2 22 4 0
5 -11 13 -24 16 -13 3 -31 9 -40 12 -12 5 -15 2 -10 -10z"/>
<path d="M968 2378 c-10 -10 -13 -18 -8 -18 17 0 11 -14 -11 -29 -19 -11 -21
-11 -16 3 7 19 -2 48 -13 41 -4 -2 -5 -16 -2 -30 2 -15 0 -25 -7 -25 -6 0 -11
5 -11 12 0 6 -2 9 -5 6 -4 -3 -3 -18 1 -33 6 -26 8 -27 20 -10 7 9 19 15 27
12 15 -5 37 30 37 58 0 7 5 15 12 17 7 3 8 7 3 10 -6 2 -18 -3 -27 -14z"/>
<path d="M505 2370 c3 -5 -1 -10 -9 -10 -9 0 -16 -9 -16 -21 0 -11 4 -18 9
-14 5 3 12 1 16 -5 7 -11 -5 -13 -44 -10 -16 1 -21 -2 -16 -10 5 -9 1 -10 -14
-5 -15 5 -21 2 -21 -9 0 -9 -5 -16 -10 -16 -6 0 -15 -11 -20 -25 -5 -14 -17
-25 -26 -25 -10 0 -14 -5 -10 -15 5 -14 -6 -20 -29 -15 -5 1 -4 -4 2 -11 17
-17 58 5 83 46 16 25 74 67 75 53 0 -1 7 3 15 10 8 7 29 24 45 38 l30 25 -27
-10 c-19 -7 -28 -7 -28 0 0 5 7 12 16 16 13 5 13 7 2 14 -18 12 -31 11 -23 -1z"/>
<path d="M840 2370 c-8 -5 -22 -7 -30 -5 -8 2 -21 1 -28 -4 -11 -7 -11 -9 2
-14 9 -4 16 -1 17 6 1 7 7 -6 14 -28 l12 -40 8 37 c4 22 14 38 24 40 9 2 12 6
6 10 -6 4 -17 3 -25 -2z"/>
<path d="M1030 2348 c0 -19 -5 -28 -17 -28 -21 0 -12 -9 16 -15 16 -3 21 1 21
18 0 12 -5 29 -10 37 -8 12 -10 9 -10 -12z"/>
<path d="M1080 2335 c-6 -17 -7 -32 -2 -37 6 -6 12 4 16 23 8 42 0 50 -14 14z"/>
<path d="M1276 2334 c-4 -9 -4 -19 -1 -22 3 -3 5 0 5 6 0 7 16 12 38 12 27 0
33 3 22 10 -23 15 -57 12 -64 -6z"/>
<path d="M1130 2320 c0 -11 -4 -20 -10 -20 -5 0 -10 -7 -10 -15 0 -8 5 -15 10
-15 6 0 10 5 10 11 0 5 5 7 12 3 8 -5 9 -2 5 10 -4 10 -3 15 3 11 12 -7 12 -3
4 19 -9 23 -24 20 -24 -4z"/>
<path d="M976 2304 c-3 -8 -16 -15 -28 -15 -18 -1 -19 -2 -5 -6 10 -3 24 0 31
6 14 12 28 2 39 -29 4 -12 6 -11 6 3 1 9 -8 26 -18 36 -16 16 -20 17 -25 5z"/>
<path d="M1223 2309 c3 -9 0 -22 -6 -29 -9 -10 -9 -11 1 -6 8 5 20 -1 32 -14
10 -12 21 -17 24 -11 4 5 -2 16 -12 23 -10 7 -24 22 -31 33 -8 12 -11 14 -8 4z"/>
<path d="M1352 2312 c-7 -2 5 -13 27 -24 29 -14 41 -27 41 -42 0 -17 2 -18 10
-6 5 8 10 18 10 21 0 12 -75 56 -88 51z"/>
<path d="M737 2278 c15 -25 26 -33 47 -32 20 1 26 -3 24 -15 -4 -17 -19 -18
-53 -6 -16 6 -17 5 -5 -4 13 -9 12 -11 -4 -11 -16 0 -17 -3 -8 -12 9 -9 19
-10 41 -1 24 9 29 8 24 -3 -3 -8 1 -14 11 -14 12 0 15 7 11 28 -4 22 -3 21 7
-5 6 -18 15 -33 21 -33 5 0 7 7 3 15 -3 8 -1 15 3 15 12 0 22 -30 14 -42 -4
-7 -1 -8 7 -3 10 6 12 2 7 -16 -4 -13 -7 -27 -7 -31 0 -5 -10 -8 -22 -9 -13 0
-32 -5 -43 -10 -15 -7 -10 -8 19 -3 27 4 42 1 47 -8 6 -10 9 -8 9 6 0 17 5 15
31 -12 34 -35 45 -39 52 -19 3 6 6 2 6 -11 1 -13 8 -31 17 -39 10 -11 14 -26
10 -45 -3 -17 -1 -28 5 -28 6 0 9 -7 6 -15 -4 -8 -2 -17 3 -20 13 -8 13 -42 1
-47 -5 -1 -11 -19 -12 -38 -4 -41 -31 -76 -51 -64 -7 4 -10 4 -6 -1 4 -4 3
-14 -3 -22 -9 -9 -8 -13 0 -13 6 0 11 5 11 11 0 5 5 7 10 4 6 -3 10 -3 10 2 0
11 63 53 79 53 11 0 11 -3 1 -15 -10 -13 -11 -18 -1 -28 7 -7 11 -7 10 -2 -2
11 7 40 23 69 9 17 8 17 -13 2 -28 -19 -46 -21 -30 -3 15 19 1 30 -17 14 -13
-10 -14 -9 -3 11 9 16 16 20 24 13 9 -7 11 2 8 35 -1 24 -8 44 -14 44 -6 0 -7
3 -4 7 4 3 15 -2 26 -11 12 -11 21 -14 26 -7 3 6 0 11 -8 11 -8 0 -17 9 -20
20 -3 11 -10 20 -17 20 -6 0 -8 -4 -5 -10 3 -5 1 -10 -4 -10 -14 0 -14 17 0
25 7 5 3 15 -10 29 -24 26 -14 54 15 41 11 -5 23 -7 27 -6 4 1 3 -8 -3 -19 -6
-12 -9 -26 -6 -33 2 -7 5 -4 5 6 1 27 25 15 29 -14 5 -36 18 -44 47 -29 19 10
22 16 13 22 -10 6 -10 10 2 18 11 7 12 10 2 10 -8 0 -16 -9 -19 -19 -6 -24
-33 -36 -33 -15 0 9 5 12 11 8 7 -4 0 11 -15 32 -23 34 -24 40 -11 50 16 12
10 24 -12 24 -7 0 -12 -6 -11 -12 2 -7 -4 -13 -12 -13 -8 0 -14 5 -13 11 4 19
-35 4 -40 -15 -4 -15 -5 -14 -6 1 0 9 -10 20 -21 23 -23 7 -27 35 -5 35 8 0
15 5 15 11 0 6 9 8 21 4 20 -7 20 -6 2 14 -9 12 -24 21 -33 21 -13 0 -13 -1 0
-10 9 -6 10 -10 3 -10 -6 0 -15 5 -18 10 -3 6 -10 10 -16 10 -10 0 -8 -22 3
-31 5 -3 2 -14 -6 -25 -14 -19 -15 -19 -36 4 -20 22 -21 24 -6 47 9 14 12 25
6 25 -5 0 -10 6 -10 14 0 8 -9 18 -21 21 -11 4 -18 9 -15 13 6 5 -26 27 -57
38 -10 4 -16 13 -13 20 7 17 -6 18 -23 2 -11 -11 -13 -10 -8 4 4 13 2 15 -10
11 -11 -4 -14 -2 -9 5 4 7 1 12 -9 12 -15 0 -15 -3 2 -32z"/>
<path d="M1160 2283 c0 -3 11 -19 26 -35 14 -17 23 -37 20 -44 -3 -8 1 -14 9
-14 26 0 16 29 -20 64 -19 19 -35 32 -35 29z"/>
<path d="M1050 2270 c13 -8 12 -10 -2 -10 -10 0 -18 -7 -18 -16 0 -14 2 -15
17 -3 9 8 18 13 20 12 11 -9 33 -1 33 12 0 10 -10 15 -32 15 -25 0 -29 -3 -18
-10z"/>
<path d="M650 2255 c0 -7 9 -17 20 -20 25 -8 25 -17 0 -33 -11 -7 -17 -18 -14
-27 4 -9 0 -15 -9 -15 -18 0 -41 -62 -34 -90 3 -10 -1 -20 -7 -22 -8 -2 -10
-12 -5 -28 7 -24 7 -24 8 -2 1 24 16 30 24 10 3 -8 9 -3 15 12 8 21 6 27 -11
36 -14 8 -16 13 -8 19 7 4 10 13 7 21 -3 9 0 11 11 7 9 -4 21 1 29 11 7 10 18
15 23 11 6 -3 14 1 17 9 3 9 10 16 16 16 5 0 6 -4 3 -10 -4 -6 13 -10 44 -10
30 0 51 5 51 11 0 6 -9 8 -20 4 -13 -4 -20 -2 -20 7 0 10 -2 10 -9 -1 -6 -10
-10 -10 -16 -1 -5 7 -19 10 -40 6 -37 -7 -54 7 -35 29 8 10 8 19 1 33 -13 25
-41 36 -41 17z"/>
<path d="M910 2244 c0 -9 8 -23 18 -30 16 -13 16 -13 -1 -14 -10 0 -16 -4 -13
-9 9 -14 41 -5 38 10 -2 8 -8 16 -13 17 -5 2 -9 12 -9 23 0 10 -4 19 -10 19
-5 0 -10 -7 -10 -16z"/>
<path d="M1435 2195 c-5 -34 -9 -44 -16 -34 -7 12 -9 12 -9 -1 0 -8 9 -21 21
-28 12 -8 18 -9 14 -3 -3 6 -1 27 5 46 7 22 8 40 2 51 -7 13 -11 6 -17 -31z"/>
<path d="M1142 2193 c-18 -23 -32 -45 -32 -49 0 -5 7 0 15 10 13 17 15 18 15
3 0 -9 8 -17 17 -17 16 0 16 1 1 17 -16 15 -16 18 3 34 12 10 19 23 17 30 -2
7 -18 -6 -36 -28z"/>
<path d="M1273 2181 c4 -20 3 -30 -3 -26 -6 3 -10 1 -10 -4 0 -6 5 -11 10 -11
6 0 10 -8 11 -17 0 -11 3 -13 6 -5 8 20 25 13 18 -8 -10 -30 2 -24 19 10 8 17
11 30 6 30 -5 0 -11 -6 -13 -12 -3 -7 -6 1 -7 17 -1 26 -3 27 -10 10 -8 -18
-9 -17 -9 7 -1 15 -6 30 -13 34 -8 5 -9 -2 -5 -25z"/>
<path d="M1090 2181 c0 -13 -5 -18 -17 -15 -10 3 -27 -2 -38 -11 -20 -16 -19
-16 3 -5 16 8 28 8 42 0 18 -10 20 -8 20 20 0 16 -2 30 -5 30 -3 0 -5 -9 -5
-19z"/>
<path d="M1334 2185 c2 -5 9 -9 15 -7 6 1 11 -4 11 -10 0 -9 4 -8 10 2 15 23
12 28 -15 26 -14 0 -23 -5 -21 -11z"/>
<path d="M287 2184 c-4 -4 -7 -16 -7 -26 0 -12 -6 -19 -17 -17 -31 3 -57 -1
-50 -7 3 -3 22 -7 41 -9 31 -3 37 0 42 20 7 28 2 50 -9 39z"/>
<path d="M484 2158 c1 -13 -4 -22 -11 -20 -7 1 -13 -3 -13 -9 0 -6 8 -8 19 -4
11 3 22 1 26 -5 3 -5 2 -10 -4 -10 -6 0 -8 -7 -4 -16 5 -15 7 -15 15 0 5 9 15
13 21 10 7 -4 2 3 -10 14 -13 14 -19 29 -16 42 4 13 1 20 -9 20 -9 0 -14 -9
-14 -22z"/>
<path d="M1180 2159 c0 -6 9 -8 22 -4 17 6 20 4 15 -9 -4 -9 -3 -16 2 -16 13
0 20 11 14 26 -6 16 -53 19 -53 3z"/>
<path d="M760 2123 c0 -10 4 -24 9 -31 7 -11 9 -11 14 2 7 19 -1 46 -14 46 -5
0 -9 -8 -9 -17z"/>
<path d="M418 2107 c-6 -8 -22 -11 -35 -9 -13 2 -23 -1 -23 -7 0 -6 17 -11 41
-11 24 0 38 4 34 10 -3 6 4 10 17 10 18 0 20 2 8 10 -20 13 -27 12 -42 -3z"/>
<path d="M1163 2085 c2 -23 -3 -30 -23 -36 -14 -4 -18 -8 -10 -8 13 -1 13 -2
0 -11 -13 -9 -13 -10 0 -10 25 1 47 42 39 70 -8 24 -8 24 -6 -5z"/>
<path d="M522 2064 c-7 -8 -9 -14 -5 -14 4 0 1 -5 -7 -10 -13 -9 -13 -11 0
-20 20 -13 35 -7 36 14 2 13 1 13 -3 1 -2 -8 -9 -13 -14 -10 -5 4 -5 14 2 26
13 25 9 32 -9 13z"/>
<path d="M1329 2059 c-9 -5 -20 -21 -24 -36 -3 -16 -14 -36 -23 -46 -16 -18
-15 -18 10 -12 19 5 32 1 47 -14 12 -12 26 -21 31 -21 14 0 12 -18 -2 -23 -7
-2 2 -4 19 -3 39 1 42 12 8 28 -14 6 -25 17 -25 24 0 7 -12 14 -27 16 -18 2
-29 10 -31 22 -4 19 6 19 52 1 14 -6 17 -4 14 6 -3 8 -11 14 -19 15 -33 2 -39
5 -39 15 0 6 9 9 19 6 12 -3 18 0 17 9 -3 20 -10 23 -27 13z"/>
<path d="M228 2045 c-21 -7 -39 -9 -40 -4 -4 10 -48 0 -48 -11 0 -7 81 -7 88
0 7 7 28 4 34 -4 10 -15 17 -4 9 16 -5 14 -10 15 -43 3z"/>
<path d="M785 2026 c-18 -13 -27 -16 -40 -16 -3 0 3 -9 12 -20 10 -11 23 -20
31 -20 7 0 10 -4 7 -10 -3 -5 -2 -10 4 -10 6 0 15 9 21 21 8 13 15 17 23 11
16 -11 77 -15 77 -4 0 11 -22 32 -33 32 -4 0 -6 -4 -3 -9 3 -4 -7 -6 -22 -3
l-27 6 34 8 c22 6 37 6 44 -1 6 -6 16 -11 21 -11 6 1 0 10 -13 20 -28 24 -106
27 -136 6z"/>
<path d="M1257 2032 c-15 -2 -25 -7 -22 -12 7 -11 -24 -42 -36 -35 -5 4 -9 3
-9 -2 0 -4 -3 -17 -6 -29 -9 -32 23 -26 37 8 10 25 20 33 42 29 4 0 7 5 7 13
0 8 6 16 13 19 20 7 4 13 -26 9z"/>
<path d="M576 2018 c-5 -10 -11 -16 -15 -14 -3 2 -12 -3 -19 -10 -12 -13 -9
-14 15 -8 25 7 27 6 14 -9 -7 -9 -18 -14 -25 -10 -8 4 -8 3 0 -6 8 -9 17 -8
39 3 34 18 45 13 45 -20 0 -13 5 -24 10 -24 6 0 10 7 10 15 0 8 7 15 15 15 8
0 15 7 15 15 0 8 5 15 10 15 7 0 7 -6 0 -20 -9 -17 -8 -20 10 -20 26 0 36 24
22 54 -11 25 -38 30 -46 9 -3 -8 -10 -11 -16 -8 -5 3 -10 1 -10 -4 0 -6 6 -11
13 -11 8 0 7 -3 -3 -9 -16 -11 -33 -4 -25 9 3 5 1 11 -4 14 -5 4 -12 2 -16 -4
-11 -18 -24 -10 -27 18 -4 22 -6 24 -12 10z"/>
<path d="M920 1955 l-44 -50 41 39 42 39 15 -37 c8 -20 18 -36 21 -36 3 0 3 5
-1 11 -4 7 -12 28 -18 48 l-11 36 -45 -50z"/>
<path d="M1550 1998 c1 -7 7 -24 14 -37 12 -21 13 -22 18 -5 2 11 -4 27 -14
37 -12 11 -18 13 -18 5z"/>
<path d="M1441 1971 c-1 -8 -8 -11 -21 -8 -27 7 -36 -10 -9 -18 24 -8 44 7 36
27 -4 11 -6 11 -6 -1z"/>
<path d="M259 1934 c-11 -14 -10 -15 11 -12 13 1 25 9 28 16 5 17 -23 15 -39
-4z"/>
<path d="M600 1932 c0 -24 -15 -30 -23 -9 -3 6 -6 -2 -6 -19 -1 -32 -22 -69
-40 -69 -6 0 -11 -4 -10 -8 0 -5 -8 -15 -18 -23 -16 -12 -15 -13 17 -14 26 0
31 3 20 10 -13 8 -12 10 3 10 9 0 17 -5 17 -11 0 -6 9 -9 20 -6 11 3 20 1 20
-3 0 -5 12 -13 28 -18 15 -6 21 -11 15 -11 -7 -1 -13 -9 -13 -20 0 -10 -7 -24
-15 -31 -9 -7 -14 -19 -11 -26 5 -14 -21 -28 -29 -14 -3 4 1 10 7 13 10 4 10
7 0 18 -7 8 -12 10 -10 4 3 -11 -11 -15 -30 -8 -7 3 -27 -2 -44 -10 -18 -9
-37 -13 -43 -10 -5 2 0 -4 11 -14 12 -10 24 -25 28 -33 3 -8 4 -3 1 13 -5 23
-1 29 20 37 36 14 40 13 24 -7 -12 -16 -12 -17 2 -6 12 10 18 8 33 -8 16 -19
19 -19 29 -5 15 20 57 11 57 -12 0 -13 3 -13 12 -4 8 8 9 15 3 20 -6 4 -16 15
-24 25 -12 15 -12 17 4 11 12 -5 16 -4 12 3 -4 7 0 9 10 7 10 -2 25 0 33 6 13
9 13 12 -2 24 -10 7 -15 16 -11 19 11 12 -24 53 -47 54 -30 3 -30 2 -33 71 -2
56 -17 103 -17 54z m10 -98 c0 -8 -7 -14 -15 -14 -8 0 -15 -5 -15 -11 0 -5 -4
-7 -10 -4 -15 10 -12 35 5 35 8 0 15 5 15 11 0 5 5 7 10 4 6 -3 10 -13 10 -21z"/>
<path d="M825 1940 c3 -5 17 -10 30 -10 13 0 27 5 30 10 4 6 -8 10 -30 10 -22
0 -34 -4 -30 -10z"/>
<path d="M424 1915 c3 -10 -1 -15 -11 -15 -9 0 -14 -3 -10 -6 8 -9 48 6 42 16
-3 5 3 11 12 13 11 3 7 5 -11 6 -21 1 -27 -3 -22 -14z"/>
<path d="M794 1914 c22 -22 20 -37 -4 -29 -12 4 -28 1 -37 -7 -13 -10 -17 -10
-20 -1 -3 8 -13 4 -31 -12 -14 -13 -23 -28 -18 -32 4 -4 10 -3 14 3 8 12 42
15 42 3 0 -12 37 1 58 21 19 18 20 18 40 -3 27 -30 42 -61 42 -88 0 -14 4 -19
9 -13 6 5 5 33 -2 69 -6 33 -13 52 -15 42 -3 -15 -10 -11 -41 22 -21 23 -41
41 -45 41 -4 0 0 -7 8 -16z"/>
<path d="M1240 1921 c0 -7 -5 -9 -12 -5 -7 4 -8 3 -4 -5 4 -6 12 -9 17 -6 5 4
9 2 9 -4 0 -5 9 -13 20 -16 11 -3 27 -13 35 -22 22 -21 30 -9 13 16 -8 12 -18
18 -21 14 -4 -3 -18 4 -32 17 -14 13 -25 18 -25 11z"/>
<path d="M1097 1902 c-10 -10 -17 -23 -17 -28 0 -5 5 -2 10 6 8 12 10 12 10
-5 0 -11 5 -27 11 -35 9 -13 10 -13 7 0 -1 8 3 25 10 36 17 32 -8 52 -31 26z"/>
<path d="M348 1885 c-3 -14 -1 -25 3 -25 5 0 9 5 9 10 0 6 8 10 18 11 10 0 12
3 4 6 -6 2 -10 9 -6 14 3 5 -1 9 -9 9 -8 0 -17 -11 -19 -25z"/>
<path d="M1415 1887 c-57 -41 -60 -46 -36 -68 22 -20 30 -12 9 9 -9 9 -7 12
13 13 13 0 18 3 12 6 -18 7 -16 23 2 23 8 0 15 4 15 9 0 5 8 11 18 13 9 2 12
6 7 10 -6 3 -24 -3 -40 -15z"/>
<path d="M116 1863 c-3 -3 -1 -13 6 -20 16 -19 -7 -35 -44 -30 -18 2 -28 -1
-28 -10 0 -7 -4 -13 -10 -13 -5 0 -6 7 -3 17 4 11 3 14 -5 9 -12 -7 -17 -46
-7 -46 4 0 19 7 34 15 16 8 31 12 34 9 7 -7 56 28 57 39 0 13 -27 37 -34 30z"/>
<path d="M1193 1843 c-7 -2 -13 -12 -13 -21 0 -10 -3 -13 -8 -7 -8 11 -32 18
-32 9 0 -15 28 -31 41 -24 8 6 16 4 21 -3 5 -8 8 -6 8 6 0 9 4 17 10 17 5 0 7
7 4 15 -6 16 -11 17 -31 8z"/>
<path d="M1460 1798 c13 -12 33 -23 45 -24 11 0 34 -8 51 -17 32 -16 32 -16
21 6 -8 17 -18 22 -45 21 -18 0 -39 4 -45 11 -7 6 -21 15 -32 19 -17 6 -16 4
5 -16z"/>
<path d="M713 1793 c10 -11 15 -27 11 -37 -3 -9 -1 -16 5 -16 6 0 11 5 11 12
0 6 3 8 6 5 4 -4 1 -13 -5 -21 -16 -19 9 -71 42 -86 20 -10 20 -10 5 3 -36 28
-14 56 45 57 25 0 21 -34 -5 -54 l-23 -16 25 9 c18 6 27 19 34 46 8 35 6 41
-19 63 -23 19 -35 22 -64 17 -23 -3 -31 -2 -23 3 11 7 10 10 -5 14 -10 3 -27
9 -38 14 -19 7 -19 7 -2 -13z"/>
<path d="M1105 1796 c-5 -11 -3 -21 5 -26 7 -4 9 -13 6 -19 -4 -6 -2 -11 3
-11 12 0 13 13 1 50 -6 22 -8 23 -15 6z"/>
<path d="M436 1781 c-15 -6 -16 -10 -7 -15 7 -5 18 -3 24 3 17 17 31 13 17 -4
-7 -8 -11 -15 -9 -16 33 -7 37 -6 32 7 -3 9 2 14 13 15 14 1 13 3 -6 9 -32 10
-41 10 -64 1z"/>
<path d="M1350 1778 c0 -4 0 -11 0 -15 0 -5 5 -8 11 -8 12 0 23 -15 34 -50 7
-19 7 -19 16 3 8 22 10 23 26 6 19 -18 20 -29 4 -29 -19 0 -19 -11 0 -12 11
-1 29 6 40 15 20 17 27 38 9 27 -6 -3 -20 -3 -31 0 -17 6 -19 9 -8 16 16 10 4
13 -37 10 -14 -2 -23 5 -27 18 -6 24 11 29 19 6 4 -8 10 -12 16 -9 14 9 -25
33 -50 31 -12 -1 -22 -5 -22 -9z"/>
<path d="M345 1771 c-11 -5 -23 -7 -26 -5 -3 2 -6 -3 -6 -10 0 -11 5 -11 26 0
30 16 51 18 51 5 0 -4 -15 -12 -32 -18 -22 -6 -33 -15 -32 -26 1 -9 -2 -15 -6
-12 -4 2 -22 -7 -40 -20 -19 -14 -31 -26 -27 -26 26 -5 34 -3 48 10 49 48 81
71 98 71 30 0 33 16 5 29 -28 13 -31 13 -59 2z"/>
<path d="M64 1759 c-3 -5 -13 -9 -23 -9 -10 0 -25 -8 -32 -17 -12 -16 -12 -17
1 -6 9 7 36 15 60 19 62 9 83 22 37 22 -20 0 -40 -4 -43 -9z"/>
<path d="M1230 1753 c0 -10 9 -24 21 -31 19 -12 20 -15 5 -38 -9 -13 -12 -24
-7 -24 5 0 11 5 13 11 4 12 45 -6 59 -24 3 -5 9 -2 12 7 5 11 1 16 -13 16 -25
0 -27 30 -2 30 16 1 16 1 0 14 -10 7 -18 19 -18 27 0 10 -3 10 -12 1 -10 -10
-10 -15 2 -22 8 -5 11 -12 6 -17 -8 -9 -30 24 -31 47 0 22 -35 25 -35 3z"/>
<path d="M440 1742 c0 -7 5 -12 12 -12 31 0 -13 -21 -47 -23 -31 -2 -50 -13
-106 -65 -69 -64 -81 -85 -55 -95 13 -5 56 31 56 47 0 4 -11 -6 -25 -21 -13
-15 -25 -23 -25 -17 0 13 34 54 46 54 5 1 23 12 39 26 17 15 24 23 16 19 -9
-5 -12 -3 -9 6 3 8 21 15 42 17 43 4 42 -12 -2 -30 -16 -6 -22 -12 -14 -15 7
-3 19 1 28 7 8 7 17 11 20 8 2 -3 -10 -12 -28 -21 -32 -15 -94 -65 -148 -117
-14 -14 -36 -33 -50 -41 -14 -9 -48 -37 -76 -63 -78 -70 -78 -55 1 24 37 38
72 67 77 64 4 -3 8 -1 8 5 0 29 -25 13 -93 -58 -77 -81 -113 -128 -105 -137 3
-2 55 36 117 86 61 50 111 88 111 85 0 -4 21 14 46 39 25 25 58 49 72 53 25 6
80 53 64 53 -4 0 1 5 11 11 9 6 15 14 12 20 -4 5 -1 9 4 9 6 0 10 3 10 8 -3
18 2 32 12 32 6 0 7 -6 2 -12 -4 -7 5 -5 20 5 14 9 40 17 56 17 16 0 32 6 34
13 4 10 6 10 6 0 2 -21 21 -14 21 7 0 23 -8 24 -47 9 -42 -17 -76 -18 -95 -1
-12 10 -18 11 -18 4z"/>
<path d="M899 1729 c-8 -17 -8 -23 1 -29 8 -5 11 -21 8 -40 -3 -21 0 -34 9
-37 7 -3 13 -12 13 -20 0 -8 5 -11 11 -8 6 4 8 13 5 20 -8 21 17 24 38 6 18
-15 18 -15 7 7 -7 14 -21 22 -37 22 -15 0 -23 4 -19 11 4 6 14 8 22 5 8 -3 11
-1 8 4 -3 6 -2 10 4 10 6 0 16 -10 22 -22 8 -14 14 -18 17 -10 2 6 9 9 15 5 7
-3 2 5 -11 19 -20 22 -21 27 -8 37 13 11 15 9 11 -8 -2 -12 0 -21 6 -21 5 0 9
3 10 8 0 4 2 19 4 35 5 35 -7 34 -38 -2 -32 -38 -59 -43 -74 -13 -7 13 -10 28
-7 33 3 5 3 9 0 9 -3 0 -10 -10 -17 -21z"/>
<path d="M1160 1739 c0 -6 7 -9 14 -6 9 4 13 1 10 -7 -3 -7 4 -21 16 -31 11
-10 20 -23 20 -29 0 -6 -13 4 -29 21 -22 25 -31 29 -35 18 -3 -8 0 -15 7 -15
18 -1 50 -49 43 -66 -8 -21 -22 -17 -45 12 -21 26 -21 26 -21 4 0 -16 -4 -20
-15 -16 -9 3 -15 0 -15 -9 0 -9 10 -15 23 -16 12 0 39 -2 60 -4 32 -4 37 -2
27 10 -9 11 -5 13 22 11 57 -5 59 -6 53 -16 -3 -5 0 -8 7 -6 38 12 69 16 64 8
-3 -5 5 -7 18 -5 34 7 126 -35 126 -58 0 -10 -4 -20 -9 -23 -5 -3 -14 -20 -20
-36 -15 -44 6 -27 25 20 16 39 39 52 75 43 12 -4 18 -11 15 -20 -3 -8 -1 -11
4 -8 15 9 12 32 -6 39 -9 3 -29 6 -46 6 -29 0 -88 27 -88 41 0 4 9 5 20 2 14
-4 20 0 20 11 0 10 -6 13 -15 10 -16 -7 -18 -3 -9 20 5 12 10 13 26 5 12 -6
17 -17 14 -26 -4 -9 1 -17 14 -20 11 -3 20 -9 20 -14 0 -4 9 -7 19 -6 15 1 17
4 9 14 -5 7 -14 11 -18 8 -16 -10 -22 16 -8 32 11 14 10 15 -10 9 -17 -6 -24
-3 -31 15 l-8 23 -27 -29 c-26 -27 -31 -29 -116 -30 -69 -2 -90 1 -90 12 0 16
-17 17 -22 2 -2 -7 -10 7 -16 29 -7 23 -18 41 -25 39 -7 -1 -11 7 -10 21 2 16
-2 22 -17 22 -11 0 -20 -5 -20 -11z"/>
<path d="M42 1703 c0 -5 -7 -25 -16 -47 -12 -27 -14 -42 -7 -49 8 -8 11 -6 11
5 0 9 6 19 13 21 9 4 8 8 -3 16 -13 9 -12 11 5 12 11 1 25 3 32 3 26 3 24 16
-3 16 -28 1 -28 1 -10 15 19 15 19 15 -2 15 -12 0 -21 -3 -20 -7z"/>
<path d="M710 1675 c-5 -23 2 -71 12 -80 8 -7 8 -6 3 4 -6 11 -4 13 8 8 21 -8
22 6 3 25 -8 8 -16 23 -19 34 -2 10 -6 15 -7 9z"/>
<path d="M1059 1632 c-7 -17 -17 -28 -21 -26 -4 3 -8 -2 -8 -10 0 -10 -6 -13
-17 -10 -14 5 -15 4 -4 -4 8 -6 20 -8 28 -5 22 8 15 -16 -12 -43 -14 -14 -23
-30 -19 -36 3 -5 -2 -27 -11 -48 -18 -39 -52 -60 -99 -60 -19 0 -18 3 12 31
19 17 37 27 45 23 9 -5 9 -4 -1 7 -9 10 -17 11 -29 3 -19 -12 -74 -81 -55 -70
6 4 12 3 12 -3 0 -11 -43 -37 -48 -30 -2 2 -10 -7 -19 -21 -8 -14 -12 -17 -9
-7 3 11 2 16 -4 12 -6 -4 -9 -22 -6 -41 6 -55 -13 -25 -37 58 -12 40 -21 96
-20 123 0 37 -1 44 -7 25 -5 -14 -8 -19 -9 -11 -1 8 -3 12 -5 10 -4 -4 7 -74
19 -126 4 -16 1 -23 -9 -23 -8 0 -17 -4 -20 -9 -3 -4 7 -6 22 -4 21 4 24 2 12
-6 -12 -8 -12 -13 -2 -23 6 -6 12 -8 12 -2 0 5 7 -4 15 -20 14 -27 14 -31 -5
-51 -23 -24 -26 -41 -7 -48 6 -3 2 -6 -10 -6 -14 -1 -23 -7 -23 -17 0 -15 2
-15 23 0 12 9 29 19 37 22 34 13 45 23 42 40 -13 79 15 124 77 124 28 0 33 3
21 11 -12 9 -12 10 3 5 10 -3 22 -6 27 -6 5 0 2 -17 -7 -38 -10 -26 -24 -42
-44 -49 -16 -6 -29 -16 -29 -22 0 -8 6 -7 20 1 30 19 36 1 7 -28 l-26 -25 -16
25 c-9 14 -13 31 -9 37 4 7 3 9 -3 6 -5 -3 -10 -26 -10 -51 -1 -24 -4 -54 -8
-65 -5 -15 -3 -19 8 -16 9 4 12 16 9 35 -5 33 3 37 31 16 21 -16 23 -46 2 -46
-17 0 -20 -27 -4 -32 9 -3 8 -11 -1 -28 -7 -14 -16 -31 -20 -39 -3 -8 -12 -17
-20 -19 -10 -4 -11 5 -6 37 4 25 2 41 -4 41 -5 0 -10 -25 -10 -55 0 -57 -9
-66 -40 -44 -13 9 -12 10 2 5 10 -3 20 -1 23 4 7 11 -44 13 -70 4 -13 -5 -14
-8 -3 -15 10 -7 10 -9 1 -9 -7 0 -13 -8 -13 -17 -1 -16 -2 -16 -12 1 -7 13 -7
29 0 55 9 28 8 45 -3 76 -16 45 -20 28 -6 -22 5 -18 6 -35 1 -38 -5 -3 -10 3
-13 12 -2 10 -2 -10 1 -44 4 -59 3 -63 -17 -63 -11 0 -20 -3 -19 -7 1 -5 -3
-18 -10 -30 -18 -32 -2 -29 38 7 37 33 43 35 70 20 12 -6 21 -7 25 0 3 5 12 7
20 4 11 -5 12 -11 5 -24 -15 -28 -11 -38 5 -16 8 11 15 32 15 47 0 15 7 29 15
33 18 6 19 -7 4 -36 -7 -14 -8 -23 -1 -30 11 -11 20 14 43 118 7 30 16 51 22
47 5 -3 7 0 5 8 -3 8 -1 28 4 44 5 17 10 45 13 63 6 44 98 272 107 266 4 -3 5
2 2 10 -3 9 -1 16 6 16 6 0 8 4 5 10 -3 6 1 7 9 4 22 -8 21 -11 -19 -84 -19
-36 -35 -69 -35 -74 0 -17 37 39 75 113 l39 73 44 -6 c25 -3 55 -6 67 -6 l23
0 -29 -71 c-16 -39 -29 -76 -29 -83 0 -6 -6 -22 -13 -36 -7 -14 -24 -54 -37
-90 -22 -62 -103 -220 -156 -305 -14 -22 -31 -54 -39 -72 -8 -18 -24 -40 -35
-50 -18 -18 -19 -19 0 -19 10 0 18 3 17 7 -3 8 59 62 283 249 102 85 187 158
188 162 2 4 8 8 13 8 20 0 69 44 69 62 0 10 5 18 10 18 6 0 10 6 10 14 0 11
11 10 61 -5 34 -11 64 -17 67 -14 3 3 10 1 16 -4 17 -12 106 -32 117 -26 5 4
9 15 9 26 0 13 -6 18 -20 16 -11 -2 -23 -6 -26 -10 -4 -4 -13 1 -21 11 -10 12
-16 14 -19 5 -8 -18 -24 -16 -24 2 0 17 -16 20 -25 5 -3 -5 -11 -10 -16 -10
-6 0 -7 5 -4 10 3 6 1 10 -4 10 -6 0 -11 -4 -11 -10 0 -5 -7 -7 -15 -4 -10 4
-14 14 -10 28 5 19 5 19 -5 3 -14 -21 -34 -12 -61 29 -13 20 -19 24 -19 12 0
-9 5 -20 11 -24 7 -4 7 -9 2 -13 -5 -3 -25 -30 -45 -58 -19 -29 -38 -50 -41
-47 -3 4 5 23 18 42 16 24 21 38 14 43 -8 5 -8 9 1 14 6 4 9 14 6 22 -3 8 -2
22 3 31 13 26 22 137 10 125 -6 -6 -11 -24 -11 -41 -1 -17 -5 -29 -9 -26 -5 3
-5 -6 1 -20 5 -14 6 -26 1 -26 -5 0 -11 -20 -14 -45 -4 -24 -17 -66 -29 -92
l-23 -48 -3 50 c-2 28 2 62 7 75 9 22 10 20 6 -15 -2 -22 -2 -32 1 -22 3 9 9
17 12 17 4 0 8 15 8 33 1 17 4 47 6 65 2 17 1 32 -4 32 -4 0 -8 -13 -8 -29 0
-16 -7 -37 -16 -45 -19 -19 -22 -34 -23 -103 -1 -29 -5 -53 -10 -53 -5 0 -7 8
-5 18 3 9 0 44 -5 77 l-9 60 -2 -50 c-2 -27 -4 -54 -5 -60 -2 -5 -3 -27 -4
-47 -1 -27 -5 -38 -17 -38 -8 0 -12 -4 -9 -10 3 -6 -1 -7 -9 -4 -10 4 -16 1
-16 -8 0 -18 -57 -61 -64 -49 -3 5 1 12 10 15 9 4 14 9 11 12 -3 3 -23 -8 -46
-24 -46 -34 -45 -42 7 -36 21 2 30 1 22 -2 -8 -4 -19 -13 -23 -20 -4 -8 -15
-14 -22 -14 -8 0 -15 -4 -15 -9 0 -5 -9 -7 -20 -4 -19 5 -25 -4 -21 -35 1 -7
-2 -12 -6 -11 -23 4 -43 -2 -41 -12 2 -6 -7 -12 -19 -14 -14 -1 -19 3 -16 12
3 7 9 11 13 8 4 -3 13 2 20 10 7 8 17 12 24 8 6 -3 6 0 -1 8 -16 17 -17 43 -1
33 8 -5 9 -2 5 9 -4 10 -1 30 5 45 6 15 12 31 12 36 1 5 15 10 31 12 66 7 93
15 112 37 36 40 37 53 0 18 -27 -25 -47 -35 -83 -39 -38 -4 -46 -2 -42 9 3 8
13 37 22 66 21 63 36 76 81 71 35 -4 36 -3 33 26 -2 22 -8 31 -20 30 -11 -1
-18 5 -18 15 0 14 -2 14 -11 1 -8 -12 -9 -10 -5 10 3 14 6 29 6 33 0 5 4 5 10
2 6 -4 7 1 3 11 -4 10 0 22 11 30 10 7 15 17 12 22 -6 10 17 35 25 28 2 -2 5
8 6 22 0 15 6 28 12 30 7 2 5 9 -5 19 -13 14 -16 14 -28 -2 -10 -14 -24 -16
-72 -13 -32 2 -66 7 -74 9 -8 3 -12 4 -8 2 3 -2 0 -16 -8 -31 -8 -15 -14 -33
-14 -39 0 -17 -8 -16 -25 0 -10 11 -10 18 0 37 7 13 10 31 8 40 -3 9 2 24 10
32 9 8 12 20 7 27 -5 9 -12 4 -21 -17z m206 -82 c-6 -20 -11 -21 -73 -14 -97
10 -115 26 -21 19 66 -6 77 -4 83 11 9 24 19 10 11 -16z m-460 -331 c0 -7 -8
-15 -17 -17 -18 -3 -25 18 -11 32 10 10 28 1 28 -15z m-35 -251 c0 -15 -32
-21 -40 -7 -13 20 9 43 26 28 8 -6 14 -16 14 -21z"/>
<path d="M808 1623 c6 -2 12 -9 12 -14 0 -4 -6 -6 -14 -3 -7 3 -16 -2 -20 -11
-4 -10 -2 -14 6 -9 6 4 17 -1 25 -11 7 -11 13 -13 13 -6 0 8 8 10 23 6 19 -5
20 -5 4 5 -9 6 -14 16 -11 22 4 7 2 8 -4 4 -7 -4 -12 -3 -12 3 0 5 8 12 18 14
9 3 1 5 -18 5 -19 0 -29 -2 -22 -5z"/>
<path d="M515 1601 c-3 -12 -10 -19 -15 -16 -10 6 -8 -15 4 -34 6 -10 5 -12
-2 -7 -7 4 -12 2 -12 -3 0 -6 -4 -11 -10 -11 -5 0 -18 -7 -29 -17 -16 -13 -17
-18 -6 -30 18 -18 31 -17 15 2 -10 12 -9 16 6 21 11 4 29 16 42 28 13 12 27
20 30 19 10 -3 4 49 -7 60 -5 5 -12 1 -16 -12z"/>
<path d="M966 1603 c4 -19 1 -23 -20 -23 -18 0 -25 -6 -28 -22 -2 -15 -10 -23
-23 -23 -11 -1 -19 -6 -17 -13 1 -7 -4 -15 -12 -18 -8 -3 -13 -11 -10 -19 3
-7 -4 -15 -15 -18 -27 -7 -27 -27 -1 -27 11 0 19 5 18 12 -2 6 6 14 17 16 11
2 33 15 51 28 17 13 34 22 37 19 4 -3 3 0 -3 7 -7 9 -14 8 -27 -4 -23 -20 -68
-35 -59 -19 4 6 12 11 18 11 6 0 21 12 35 28 20 23 25 25 34 12 9 -13 10 -13
6 2 -3 9 -1 18 6 21 9 3 9 9 -1 28 -11 22 -12 22 -6 2z"/>
<path d="M180 1565 c-14 -8 -21 -14 -16 -15 5 0 2 -8 -5 -17 -9 -12 -3 -10 18
5 53 38 55 57 3 27z"/>
<path d="M597 1539 c-4 -24 -9 -60 -12 -79 l-6 -35 16 28 c9 15 13 32 9 38 -3
6 2 17 12 24 12 9 14 14 6 15 -7 0 -10 4 -7 10 3 5 2 17 -3 26 -7 13 -11 6
-15 -27z"/>
<path d="M411 1553 c-22 -9 -61 -50 -54 -57 10 -10 35 -7 28 4 -3 6 1 10 9 10
9 0 16 7 16 15 0 8 7 15 15 15 8 0 15 5 15 10 0 11 -7 12 -29 3z"/>
<path d="M560 1530 c0 -6 -11 -16 -25 -22 -14 -6 -25 -15 -25 -20 0 -5 6 -6
13 -1 6 4 18 8 26 10 23 3 42 43 21 43 -5 0 -10 -5 -10 -10z"/>
<path d="M653 1517 c-18 -12 -33 -28 -33 -36 0 -12 4 -11 18 2 9 10 28 26 42
37 34 26 13 24 -27 -3z"/>
<path d="M769 1517 c5 -5 7 -16 4 -23 -4 -10 0 -12 11 -8 11 4 16 1 16 -11 0
-14 3 -15 15 -5 12 10 13 16 4 26 -6 8 -15 11 -20 8 -5 -3 -9 1 -9 9 0 7 -7
14 -15 14 -10 0 -12 -4 -6 -10z"/>
<path d="M1626 1494 c-3 -8 1 -28 9 -45 9 -16 12 -29 9 -29 -11 0 42 -46 61
-54 13 -5 16 -2 11 10 -3 8 -6 18 -6 20 0 2 -9 4 -21 4 -11 0 -17 4 -14 10 4
6 -1 7 -12 3 -16 -6 -17 -5 -3 12 8 10 10 16 4 12 -16 -9 -26 20 -14 42 9 18
4 31 -11 31 -4 0 -10 -7 -13 -16z"/>
<path d="M303 1463 c-13 -13 -23 -28 -23 -33 0 -6 -7 -10 -15 -10 -8 0 -15 -4
-15 -10 0 -5 -7 -10 -16 -10 -8 0 -13 -4 -9 -9 3 -5 -5 -12 -17 -14 l-23 -4
23 -2 c12 0 30 8 39 19 10 11 26 20 36 20 9 0 20 7 23 15 4 8 11 12 16 9 6 -4
8 3 4 17 -3 13 -3 18 0 12 8 -18 21 -16 28 4 4 10 4 14 0 10 -4 -4 -12 -3 -18
1 -6 5 -20 -2 -33 -15z"/>
<path d="M1120 1465 c0 -8 -4 -15 -9 -15 -11 0 -35 -69 -27 -77 3 -3 16 16 28
43 12 27 24 52 26 57 2 4 -1 7 -7 7 -6 0 -11 -7 -11 -15z"/>
<path d="M486 1459 c4 -7 0 -9 -14 -5 -11 4 -23 2 -27 -4 -3 -6 -10 -8 -15 -5
-10 6 -52 -18 -90 -53 -14 -12 -33 -25 -42 -28 -10 -3 -18 -10 -18 -15 0 -6 7
-6 19 1 25 13 31 13 31 -1 0 -5 -4 -8 -9 -4 -5 3 -12 1 -15 -4 -3 -5 1 -12 9
-15 11 -4 17 3 22 24 3 16 9 27 14 24 5 -3 9 0 9 6 0 6 5 8 12 4 8 -5 9 -2 5
10 -6 14 -2 17 21 15 34 -2 64 10 56 23 -4 6 2 8 12 6 12 -2 18 -11 16 -22 -2
-11 1 -15 8 -11 6 4 9 13 6 21 -3 8 1 14 9 14 9 0 12 6 9 15 -4 8 -13 15 -21
15 -8 0 -11 -5 -7 -11z"/>
<path d="M1570 1409 c0 -6 7 -8 16 -5 28 11 36 -5 14 -29 l-21 -23 28 -6 c15
-4 35 -9 44 -12 27 -8 15 35 -17 61 -31 26 -64 33 -64 14z"/>
<path d="M1303 1343 c-14 -5 -18 -93 -5 -93 4 0 6 16 4 35 -2 19 1 42 8 50 13
16 13 16 -7 8z"/>
<path d="M1777 1332 c14 -9 12 -37 -5 -54 -16 -16 -15 -28 2 -28 8 0 17 11 20
25 4 14 13 25 21 25 22 0 27 -17 10 -33 -17 -18 -20 -37 -5 -37 5 0 16 -13 25
-29 12 -24 13 -35 3 -58 l-11 -28 -6 29 -6 29 -13 -37 c-15 -40 -22 -42 -81
-21 -72 25 -159 29 -231 10 -36 -9 -69 -20 -75 -25 -10 -8 -40 -14 -60 -11 -5
1 -4 5 4 10 7 5 14 22 16 39 2 28 1 29 -16 19 -11 -7 -19 -16 -19 -21 0 -4 8
-2 18 5 13 11 13 8 -3 -9 -16 -19 -17 -26 -7 -43 11 -18 8 -25 -32 -62 -24
-23 -64 -58 -87 -77 -24 -19 -59 -50 -79 -68 -19 -18 -48 -43 -63 -55 -16 -12
-54 -45 -85 -74 -43 -39 -60 -49 -69 -41 -10 8 -12 7 -8 -4 4 -10 -4 -24 -20
-36 -15 -12 -24 -26 -20 -31 3 -7 0 -8 -9 -5 -19 7 -20 0 -6 -26 6 -12 7 -21
0 -25 -5 -3 -6 -13 -3 -22 4 -11 2 -14 -8 -11 -16 5 -19 25 -7 51 5 10 5 17
-1 17 -5 0 -12 15 -14 33 -3 28 -4 27 -3 -7 0 -30 -6 -43 -27 -62 -15 -13 -27
-27 -26 -31 1 -4 0 -11 -1 -15 -5 -16 -8 -28 -9 -44 0 -8 -5 -12 -11 -9 -5 3
-7 0 -4 -9 3 -8 14 -14 25 -13 11 1 15 5 10 10 -6 6 -4 19 6 33 8 13 12 28 8
34 -3 5 -1 10 4 10 6 0 11 7 11 15 0 8 4 15 8 15 5 0 9 -7 9 -15 0 -8 -5 -15
-10 -15 -5 0 -4 -7 3 -15 11 -13 16 -11 41 15 32 33 36 46 17 53 -20 7 -1 20
30 21 22 1 28 5 24 19 -6 23 62 85 108 97 20 5 53 26 75 45 24 23 41 32 45 25
4 -7 12 1 20 19 11 29 21 36 43 32 5 -1 6 3 2 9 -3 5 1 20 9 32 31 44 15 35
-51 -29 -63 -62 -118 -103 -136 -103 -10 0 1 11 78 75 33 27 95 81 138 120 45
40 86 69 96 67 9 -1 27 9 38 22 15 17 40 28 82 37 33 6 58 15 55 20 -5 9 43 3
89 -11 15 -5 35 -7 45 -4 14 5 15 4 2 -5 -22 -16 -3 -26 25 -13 34 16 40 15
59 -4 19 -18 38 -10 29 13 -5 13 -2 15 12 9 31 -12 55 21 55 75 0 26 -4 51
-10 54 -5 3 -10 13 -10 21 0 8 4 13 9 10 5 -4 7 3 4 15 -6 20 -68 69 -88 69
-5 0 -5 -4 2 -8z"/>
<path d="M993 1312 c-6 -4 10 -7 35 -7 26 0 56 -5 67 -10 18 -8 19 -7 6 8 -14
18 -85 24 -108 9z"/>
<path d="M434 1299 c-3 -5 -14 -9 -25 -9 -11 0 -19 -7 -19 -16 0 -15 2 -15 23
-1 13 8 34 17 48 19 l24 3 -22 7 c-13 3 -26 2 -29 -3z"/>
<path d="M52 1281 c2 -8 -5 -17 -16 -19 -13 -3 -16 0 -10 10 6 10 5 10 -9 -1
-18 -15 -23 -26 -7 -16 5 3 10 -1 10 -9 0 -9 -5 -16 -12 -16 -6 0 -8 -3 -4 -7
4 -5 13 -1 20 8 6 9 20 18 30 20 23 5 32 46 11 46 -8 0 -14 -7 -13 -16z"/>
<path d="M340 1277 c0 -9 5 -17 10 -17 6 0 10 -18 10 -40 0 -22 -4 -40 -9 -40
-4 0 -3 -18 2 -40 6 -22 14 -35 17 -30 3 5 12 -11 19 -35 10 -33 18 -45 32
-45 10 0 19 7 19 15 0 9 -6 12 -16 8 -14 -5 -16 -1 -11 23 3 16 4 23 1 16 -8
-18 -41 48 -36 70 2 10 8 15 13 12 5 -3 6 2 3 11 -6 14 -7 14 -18 0 -9 -13
-11 -9 -8 24 3 26 -2 48 -12 63 -13 18 -16 19 -16 5z"/>
<path d="M1499 1266 c14 -8 31 -12 38 -9 7 3 13 1 13 -5 0 -6 8 -8 19 -5 10 3
22 0 25 -6 4 -6 2 -11 -5 -11 -7 0 -10 -2 -7 -5 3 -3 18 0 32 7 26 11 25 12
-46 30 -88 21 -101 22 -69 4z"/>
<path d="M650 1236 c0 -22 -70 -62 -150 -86 -75 -22 -109 -40 -78 -40 9 0 37
9 63 20 26 11 59 20 75 20 16 0 42 11 59 26 l31 26 0 -43 c0 -60 6 -46 13 29
3 34 1 62 -4 62 -5 0 -9 -6 -9 -14z"/>
<path d="M1645 1230 c-10 -16 3 -26 17 -12 8 8 15 8 24 1 9 -7 18 -7 31 0 17
10 17 10 -2 11 -11 0 -30 3 -41 6 -12 3 -25 1 -29 -6z"/>
<path d="M455 1204 c-18 -27 -5 -32 20 -8 11 12 19 14 27 6 13 -13 0 -35 -16
-29 -7 3 -19 1 -27 -4 -10 -6 -8 -9 11 -9 28 0 38 6 59 33 14 17 13 18 -5 15
-10 -1 -18 2 -17 7 3 21 -36 13 -52 -11z"/>
<path d="M70 1191 c0 -5 -9 -11 -20 -14 -25 -7 -17 -33 13 -40 21 -6 21 -6 -2
14 -21 17 -21 19 -5 20 11 1 22 1 26 0 4 0 5 6 2 14 -7 17 -14 20 -14 6z"/>
<path d="M236 1094 c-17 -74 -17 -108 -1 -92 6 6 27 169 23 174 -2 2 -12 -35
-22 -82z"/>
<path d="M1312 1108 c-9 -9 -9 -15 1 -27 9 -12 9 -13 0 -7 -9 5 -13 -1 -13
-19 0 -24 2 -25 15 -11 9 8 14 29 13 45 -1 17 -3 31 -3 31 -1 0 -6 -5 -13 -12z"/>
<path d="M1261 1066 c-16 -19 -11 -75 6 -69 9 4 13 19 11 44 -2 44 -2 44 -17
25z"/>
<path d="M525 1005 c0 -36 4 -65 9 -65 4 0 6 -11 4 -25 -3 -14 -1 -25 5 -25 6
0 7 15 3 38 -3 20 -6 61 -6 90 0 28 -4 52 -8 52 -4 0 -8 -29 -7 -65z"/>
<path d="M87 1031 c-3 -14 1 -22 15 -27 29 -9 35 4 11 27 l-20 21 -6 -21z"/>
<path d="M173 1036 c4 -10 3 -15 -3 -11 -15 9 -12 -8 5 -31 14 -19 14 -18 16
4 1 12 2 27 3 34 1 6 -5 13 -13 16 -10 3 -12 0 -8 -12z"/>
<path d="M1215 1030 c-3 -5 -1 -10 6 -10 8 0 7 -6 -3 -17 -10 -12 -13 -25 -8
-38 7 -20 7 -20 13 0 12 40 15 75 7 75 -5 0 -12 -4 -15 -10z"/>
<path d="M1346 1011 c-9 -9 -15 -28 -15 -42 1 -15 3 -18 6 -8 2 10 13 19 24
22 10 3 19 12 19 20 0 25 -16 28 -34 8z"/>
<path d="M406 1004 c-7 -18 11 -37 26 -28 11 7 10 -8 -2 -26 -6 -9 -5 -17 2
-21 7 -4 13 -13 14 -21 1 -7 5 -30 9 -50 5 -26 4 -38 -4 -38 -6 0 -12 5 -12
10 -1 6 -2 14 -3 19 0 5 -5 13 -10 18 -5 5 -6 3 -2 -4 4 -7 2 -13 -3 -13 -6 0
-11 7 -11 16 0 9 -5 12 -12 8 -7 -5 -9 -2 -5 8 4 13 -8 18 -66 27 -71 12 -177
14 -186 5 -3 -3 -1 -8 5 -12 33 -21 18 -83 -34 -144 -8 -9 -11 -22 -6 -29 4
-8 3 -10 -4 -5 -7 4 -13 2 -13 -3 -2 -19 -5 -25 -34 -83 -16 -31 -32 -55 -36
-52 -4 2 -5 -6 -1 -18 3 -14 2 -19 -6 -14 -9 5 -12 -14 -11 -71 1 -60 3 -70 9
-43 10 53 55 154 115 260 29 52 62 119 72 148 l18 53 70 -7 c55 -5 74 -11 88
-27 28 -34 44 -51 62 -65 14 -12 14 -16 -2 -42 -9 -16 -21 -27 -25 -24 -11 7
2 -47 15 -64 8 -11 7 -13 -7 -10 -15 2 -23 -11 -42 -68 -12 -39 -35 -92 -49
-119 -19 -33 -24 -50 -16 -58 6 -6 8 -30 5 -56 -5 -39 -3 -44 8 -30 7 9 19 45
26 80 11 56 25 99 58 184 4 11 6 24 5 29 -1 5 6 6 15 2 14 -5 15 -4 4 9 -20
24 5 19 58 -12 28 -16 42 -21 34 -11 -9 11 -10 18 -2 23 5 3 10 1 10 -5 0 -6
4 -9 9 -5 5 3 12 1 16 -5 4 -6 11 -8 16 -5 5 4 9 1 9 -4 0 -24 19 -8 64 55 26
36 45 72 42 80 -3 8 -4 14 -3 15 1 0 21 2 45 5 l42 6 0 -36 c0 -25 -4 -36 -15
-36 -10 0 -15 10 -15 31 0 16 -4 28 -9 25 -4 -3 -7 -21 -5 -40 3 -27 -1 -37
-21 -50 -33 -22 -35 -52 -2 -35 19 11 20 10 10 -3 -7 -8 -9 -18 -5 -22 4 -5 0
-6 -8 -5 -8 2 -16 -1 -18 -6 -2 -6 -17 -25 -34 -43 -18 -17 -28 -32 -23 -32 5
0 -2 -11 -15 -25 -13 -14 -28 -25 -34 -25 -6 1 3 12 19 25 17 14 24 25 16 25
-11 0 -10 4 3 19 21 23 6 37 -24 21 -27 -14 -25 -23 3 -14 l22 7 -20 -23 c-11
-12 -18 -24 -17 -27 2 -3 1 -7 -2 -10 -6 -6 -10 12 -7 30 2 14 -17 7 -23 -9
-3 -8 -2 -13 3 -10 5 3 12 -1 15 -10 4 -12 2 -15 -9 -10 -9 3 -15 0 -15 -10 0
-8 -4 -13 -8 -10 -5 3 -9 -1 -9 -9 0 -19 16 -19 23 -1 3 8 16 13 30 12 22 -1
24 -5 24 -51 0 -27 -5 -57 -11 -65 -8 -12 -9 -10 -4 7 3 12 1 25 -6 29 -8 5
-9 3 -4 -6 5 -9 2 -10 -14 -5 -13 4 -21 2 -21 -5 0 -6 5 -8 10 -5 15 10 24
-25 10 -38 -10 -10 -11 -7 -5 11 4 16 3 22 -7 20 -7 -2 -14 7 -16 19 -3 19 0
22 15 16 16 -6 17 -5 3 12 -14 17 -13 18 5 13 15 -4 21 0 21 13 0 11 -6 19
-14 19 -7 0 -10 -5 -7 -10 4 -6 3 -10 -2 -9 -29 5 -34 -3 -32 -56 1 -30 6 -55
11 -55 13 0 5 -54 -10 -65 -7 -6 -16 -30 -19 -54 l-6 -44 33 6 c18 4 36 7 40
7 4 0 7 11 6 25 -1 31 -4 31 -16 3 -7 -17 -8 -8 -6 35 2 48 8 63 28 80 18 17
25 33 27 67 3 58 5 72 14 88 5 6 5 12 1 12 -4 0 1 9 11 20 12 13 14 20 6 20
-7 0 7 18 30 40 24 22 47 40 51 40 5 0 6 11 4 24 -3 14 2 30 10 37 7 6 11 16
7 23 -3 6 -3 8 2 4 4 -4 14 -3 21 3 13 11 38 3 30 -9 -2 -4 -1 -23 4 -42 l8
-35 -1 43 c0 24 -4 45 -9 48 -10 6 20 44 34 44 5 0 7 -4 4 -8 -2 -4 0 -14 5
-22 7 -11 8 -8 5 10 -1 14 3 35 11 47 9 14 11 23 4 28 -6 3 -11 -1 -11 -9 0
-9 -7 -16 -16 -16 -9 0 -14 6 -11 13 3 8 -1 14 -9 14 -7 0 -11 -4 -8 -9 3 -4
0 -8 -5 -8 -6 0 -11 -10 -12 -22 l0 -23 -9 23 c-12 27 -1 58 34 95 14 15 26
33 26 40 0 8 -3 8 -9 -1 -4 -8 -11 -13 -15 -13 -34 5 -46 -1 -46 -21 0 -48
-11 -64 -53 -79 -23 -7 -43 -20 -43 -26 -1 -7 -2 -17 -3 -22 -2 -17 -61 -76
-61 -62 0 9 -4 10 -12 3 -16 -12 -124 -31 -136 -23 -4 3 -15 17 -24 30 -13 18
-14 28 -6 47 6 13 15 24 19 24 19 0 39 133 21 144 -4 2 -9 17 -10 33 -6 75
-39 121 -56 77z"/>
<path d="M617 1003 c-4 -3 -7 -20 -7 -37 0 -17 -4 -26 -8 -20 -5 9 -10 9 -17
0 -14 -16 -18 -46 -5 -46 5 0 10 10 11 23 0 21 1 21 8 2 7 -16 10 -10 19 30
11 51 11 60 -1 48z"/>
<path d="M1172 995 c-7 -9 -8 -15 -2 -15 5 0 10 -7 10 -16 0 -8 -4 -12 -10 -9
-6 3 -10 -5 -10 -19 0 -18 4 -24 15 -20 11 4 15 19 13 50 0 24 -2 44 -2 44 -1
-1 -7 -7 -14 -15z"/>
<path d="M1134 958 c-5 -7 -10 -30 -11 -51 -1 -32 1 -36 13 -26 17 14 19 59 2
59 -9 0 -8 3 2 10 8 5 12 12 8 15 -3 4 -10 0 -14 -7z"/>
<path d="M1390 940 c0 -19 -3 -45 -6 -57 -4 -14 -2 -23 5 -23 6 0 11 6 11 14
0 27 20 27 30 1 5 -14 14 -23 20 -20 16 10 12 29 -10 45 -11 8 -20 19 -20 25
0 6 -7 20 -15 31 -14 18 -14 17 -15 -16z"/>
<path d="M1625 924 c-117 -49 -108 -47 -103 -19 3 14 1 25 -3 25 -9 0 -13 -14
-10 -35 0 -6 -13 -19 -29 -28 -29 -17 -40 -50 -21 -61 4 -3 3 -21 -3 -40 -6
-19 -13 -33 -17 -30 -10 6 -199 -177 -232 -226 -17 -25 -35 -48 -40 -51 -5 -4
-5 -9 0 -12 11 -7 35 15 68 59 29 39 117 127 139 139 10 5 24 19 30 30 6 11
12 22 14 25 2 2 7 -2 12 -10 7 -11 10 -8 15 12 8 30 30 28 55 -6 19 -26 32
-59 21 -52 -9 6 -41 -36 -41 -54 0 -19 18 -10 25 13 8 21 8 21 12 -6 2 -15 9
-25 14 -22 5 4 10 -10 11 -29 0 -20 1 -41 2 -48 1 -7 -8 -17 -20 -23 -18 -9
-19 -13 -8 -23 11 -10 14 -10 14 3 0 8 4 15 9 15 5 0 5 -16 0 -39 -14 -63 -28
-91 -44 -91 -8 0 -15 -4 -15 -10 0 -5 9 -10 20 -10 11 0 20 6 20 13 0 8 7 14
15 14 11 0 15 -12 15 -44 0 -30 -5 -45 -15 -49 -8 -4 -15 -12 -15 -19 0 -13
-21 -25 -46 -25 -23 0 -16 18 9 23 12 3 5 4 -16 4 -27 -1 -42 4 -48 16 -11 18
-49 24 -49 7 0 -5 -7 -10 -16 -10 -10 0 -14 6 -11 15 5 11 -2 9 -26 -5 -17
-11 -51 -22 -75 -26 -23 -3 -52 -14 -64 -24 -21 -17 -19 -17 43 -7 35 5 83 10
106 11 22 0 39 5 36 9 -7 11 49 -4 72 -19 11 -8 27 -14 37 -14 27 0 68 22 61
33 -3 5 0 8 8 5 17 -6 25 -78 9 -78 -6 0 -8 -4 -5 -10 3 -5 -1 -10 -9 -10 -8
0 -18 -4 -21 -10 -3 -6 1 -7 9 -4 20 8 21 -3 2 -21 -7 -8 -17 -11 -21 -7 -5 4
-5 1 -1 -6 4 -7 11 -10 16 -7 4 3 11 -1 13 -7 3 -8 6 -6 6 5 1 10 5 16 10 13
5 -4 12 0 14 6 3 7 6 4 6 -7 1 -12 6 -26 12 -32 8 -8 8 -13 0 -17 -6 -4 -11 0
-11 10 0 13 -3 14 -14 5 -8 -7 -14 -21 -13 -32 1 -22 13 -25 20 -6 4 9 6 9 6
0 1 -7 8 -13 17 -13 8 0 12 5 9 10 -3 6 -1 10 4 10 6 0 11 7 11 15 0 30 105
16 113 -16 3 -10 13 -19 24 -19 14 0 15 2 4 9 -11 7 -11 9 0 13 23 8 -26 28
-86 36 -54 7 -55 8 -41 27 10 12 19 16 23 10 5 -5 21 -11 36 -13 15 -2 36 -11
47 -22 20 -20 58 -17 67 6 2 7 12 10 21 7 13 -4 14 -3 6 6 -12 13 -7 103 6
111 11 7 10 561 -1 554 -5 -3 -9 -1 -9 5 0 5 4 12 9 15 5 3 3 23 -5 43 -7 21
-13 53 -14 70 -1 76 -73 94 -185 47z m170 -127 c14 -106 16 -179 11 -372 -3
-132 -8 -268 -12 -302 -6 -61 -6 -62 -27 -48 -39 25 -111 38 -151 27 l-36 -10
-1 101 c-1 56 -4 179 -8 272 l-7 170 -40 85 c-64 134 -65 127 3 140 32 6 85
22 118 36 56 24 60 24 72 8 12 -16 13 -16 13 8 0 21 4 25 24 21 23 -5 25 -12
41 -136z"/>
<path d="M1752 729 c-5 -13 -8 -31 -6 -39 1 -8 3 -28 3 -43 1 -16 5 -25 11
-22 5 3 7 19 4 34 -3 16 -1 39 6 51 8 16 9 25 1 33 -7 7 -13 3 -19 -14z"/>
<path d="M1608 564 c-9 -14 1 -54 14 -54 5 0 6 -5 3 -10 -3 -6 1 -17 9 -26 19
-18 22 -79 4 -68 -7 5 -9 2 -5 -8 3 -9 0 -21 -6 -27 -8 -8 -8 -11 1 -11 34 0
40 106 8 155 -8 11 -15 30 -18 40 -2 12 -6 16 -10 9z"/>
<path d="M1064 902 c-14 -10 -18 -82 -4 -82 7 0 10 14 9 33 -2 18 0 38 5 45 8
14 6 15 -10 4z"/>
<path d="M701 866 c-9 -10 -8 -15 3 -19 9 -4 19 0 23 7 5 7 15 16 23 19 9 3 4
6 -11 6 -15 1 -32 -5 -38 -13z"/>
<path d="M629 860 c-1 -3 -1 -8 0 -12 0 -5 -6 -8 -14 -8 -8 0 -15 -6 -15 -13
0 -22 23 -16 55 15 l30 28 -27 -2 c-16 -1 -29 -5 -29 -8z"/>
<path d="M556 832 c-3 -6 -3 -17 0 -26 3 -9 1 -16 -5 -16 -6 0 -11 -10 -11
-22 0 -19 -2 -20 -11 -8 -8 11 -9 6 -7 -22 2 -22 0 -34 -6 -31 -5 4 -7 -1 -3
-11 4 -10 7 -23 8 -29 0 -7 13 26 29 73 15 47 25 89 20 93 -4 5 -11 4 -14 -1z"/>
<path d="M1363 829 c-27 -10 -28 -18 -9 -44 13 -18 14 -18 9 9 -4 19 -2 27 5
22 6 -3 14 -1 17 5 10 15 3 18 -22 8z"/>
<path d="M587 784 c-4 -4 -7 -16 -7 -26 0 -10 -7 -30 -16 -43 -21 -32 -5 -32
32 0 16 14 38 24 48 23 13 -2 20 4 22 19 3 18 -1 23 -19 22 -12 -1 -29 1 -38
5 -8 4 -18 3 -22 0z"/>
<path d="M1298 759 c-10 -10 -18 -21 -18 -24 0 -3 -11 -17 -25 -31 -14 -14
-25 -29 -25 -33 0 -4 -21 -29 -46 -55 -25 -26 -43 -50 -41 -53 9 -8 73 45 99
82 12 19 26 35 31 35 4 0 7 8 7 18 0 9 14 25 30 34 17 9 30 24 30 33 0 20 -21
18 -42 -6z"/>
<path d="M1088 681 c-69 -37 -148 -105 -148 -128 0 -7 -5 -13 -12 -13 -6 0 -9
-2 -6 -5 8 -9 38 6 38 19 1 14 95 83 135 97 26 10 73 56 63 63 -1 1 -33 -14
-70 -33z"/>
<path d="M710 571 c-8 -12 -20 -21 -26 -21 -16 0 -37 -27 -26 -34 5 -3 9 -19
10 -36 0 -17 -3 -28 -8 -25 -4 3 -7 16 -6 30 2 13 -1 22 -6 19 -5 -3 -7 -12
-4 -19 2 -7 -1 -18 -7 -24 -6 -6 -7 -11 -3 -11 5 0 3 -7 -4 -15 -11 -13 -10
-14 6 -8 17 6 17 5 5 -10 -8 -10 -11 -21 -7 -24 11 -11 26 20 20 41 -4 12 -2
16 5 11 7 -4 18 -1 26 5 9 7 15 8 15 2 0 -5 -7 -15 -15 -22 -13 -11 -13 -15
-3 -22 10 -8 10 -11 1 -15 -19 -7 -16 -26 7 -46 11 -9 20 -25 20 -35 0 -11 -9
-27 -20 -37 -11 -10 -20 -15 -20 -10 0 4 -7 2 -15 -5 -12 -10 -15 -9 -15 4 0
16 -2 16 -15 2 -8 -8 -15 -25 -15 -38 1 -22 1 -22 15 -4 8 11 15 16 15 11 0
-5 7 0 15 11 15 18 15 18 13 -11 -2 -22 -8 -29 -20 -27 -11 2 -18 -3 -18 -14
0 -11 5 -14 16 -10 9 3 27 6 40 6 16 0 24 6 24 18 0 13 2 14 9 3 6 -10 20 -11
51 -6 30 5 39 10 31 18 -16 16 -13 27 5 20 23 -9 10 14 -39 67 -51 54 -76 140
-42 140 8 0 15 5 15 11 0 6 -7 9 -15 5 -24 -9 -18 2 27 44 42 39 43 55 3 24
-19 -14 -20 -13 -25 21 -5 35 -6 35 -20 16z m0 -41 c8 -5 11 -10 5 -10 -5 0
-4 -4 3 -9 10 -6 7 -12 -12 -25 -25 -16 -26 -16 -26 4 0 11 6 20 13 21 10 0
10 2 0 6 -14 5 -18 23 -5 23 4 0 14 -5 22 -10z m69 -270 c-6 -4 -16 -14 -21
-21 -8 -11 -9 -10 -5 3 5 14 3 15 -20 3 -28 -14 -47 -11 -41 7 6 17 71 36 86
25 10 -8 10 -12 1 -17z"/>
<path d="M481 514 c10 -13 9 -16 -9 -20 -24 -7 -36 -30 -20 -40 7 -4 8 -3 4 4
-3 6 3 16 14 22 19 10 24 7 21 -13 -1 -5 3 -6 8 -2 6 3 7 13 4 22 -5 12 -2 15
10 10 28 -11 19 1 -14 17 -27 14 -30 14 -18 0z"/>
<path d="M827 523 c-11 -10 -8 -73 3 -73 6 0 10 18 10 40 0 41 -2 45 -13 33z"/>
<path d="M857 477 c-24 -77 -22 -94 22 -143 22 -25 49 -64 60 -87 12 -23 21
-37 21 -31 0 13 73 25 168 28 35 1 67 8 71 14 5 9 47 18 99 21 20 1 13 18 -10
25 -27 7 -129 -4 -124 -13 2 -3 -44 -6 -102 -6 -81 0 -111 4 -123 15 -9 8 -25
21 -37 29 -17 12 -19 18 -10 34 5 11 6 17 0 14 -10 -7 -35 40 -27 53 6 9 16
100 12 100 -2 0 -11 -24 -20 -53z"/>
<path d="M470 444 c-25 -7 -41 -57 -36 -117 2 -31 1 -55 -3 -53 -4 3 -11 2
-17 -2 -5 -4 -1 -16 12 -29 15 -16 21 -18 21 -8 0 8 -5 15 -11 15 -6 0 -5 4 2
9 8 5 15 38 18 86 4 58 10 82 22 92 18 13 17 13 -8 7z"/>
<path d="M770 419 c0 -12 16 -44 36 -71 27 -36 34 -52 26 -60 -8 -8 -14 -5
-21 13 -6 15 -10 18 -10 8 -1 -22 25 -44 34 -29 5 8 11 7 22 -2 19 -15 -20 67
-45 95 -11 12 -12 17 -2 17 10 0 10 3 0 15 -7 8 -9 15 -4 15 11 0 -18 20 -28
20 -5 0 -8 -10 -8 -21z"/>
<path d="M1470 423 c-16 -12 -25 -13 -28 -5 -2 8 -16 3 -40 -13 -20 -14 -48
-25 -62 -25 -46 0 -55 -16 -20 -34 42 -20 60 -20 60 0 0 10 -6 14 -15 10 -8
-3 -15 -1 -15 4 0 6 13 10 29 10 16 0 34 7 41 15 6 8 15 14 18 13 25 -3 43 5
52 22 13 24 11 25 -20 3z"/>
<path d="M1198 401 c-25 -13 -38 -15 -41 -7 -3 8 -7 8 -18 -1 -8 -6 -43 -21
-79 -32 -130 -42 -114 -54 30 -22 46 10 86 24 88 30 2 6 10 11 18 11 8 0 24 9
36 20 27 25 15 25 -34 1z"/>
<path d="M258 328 c-18 -35 -37 -73 -41 -85 -5 -13 -13 -23 -18 -23 -5 0 -9
-6 -9 -13 0 -8 -9 -22 -20 -32 -11 -10 -20 -21 -20 -26 0 -10 -65 -105 -86
-126 -10 -10 -12 -19 -6 -21 14 -4 62 27 62 42 1 15 120 193 121 181 1 -6 4 4
8 20 3 17 11 30 16 30 5 0 13 -13 17 -30 7 -28 7 -28 4 5 -2 19 0 59 3 88 4
28 6 52 4 52 -1 0 -17 -28 -35 -62z"/>
<path d="M506 295 c-3 -9 -10 -13 -16 -10 -6 3 -7 -1 -4 -9 3 -9 2 -16 -4 -16
-5 0 -12 -6 -15 -14 -4 -11 -1 -11 18 -2 13 6 26 22 28 36 6 29 2 38 -7 15z"/>
<path d="M877 300 c8 -9 9 -19 3 -31 -8 -13 -6 -17 8 -14 9 1 24 -3 32 -9 8
-6 4 3 -8 21 -13 18 -28 35 -35 39 -9 5 -9 4 0 -6z"/>
<path d="M841 198 c-6 -16 -18 -24 -37 -26 -16 -1 -50 -7 -75 -12 -25 -6 -68
-12 -96 -13 -28 -1 -49 -4 -47 -6 2 -2 -2 -13 -8 -25 -15 -28 -17 -65 -2 -59
6 2 11 12 10 21 0 9 8 18 19 20 11 2 25 10 32 18 8 11 13 12 18 4 5 -8 10 -8
20 0 9 8 14 5 18 -12 5 -19 8 -20 19 -9 10 11 10 14 1 18 -7 3 -13 9 -13 14 0
13 38 11 42 -3 3 -7 10 -8 17 -4 11 7 11 10 0 17 -12 8 28 14 79 12 6 -1 12 3
12 9 0 5 5 6 10 3 9 -6 15 16 11 39 -1 5 5 3 14 -4 8 -7 18 -10 22 -6 9 8 2
13 -29 21 -23 6 -29 3 -37 -17z"/>
<path d="M936 177 c-5 -20 -14 -27 -44 -32 -21 -3 -43 -5 -48 -4 -5 1 -22 1
-38 0 -51 -2 -18 -15 44 -17 33 -2 64 -5 70 -9 5 -3 10 3 10 14 0 12 4 21 9
21 13 0 20 25 11 39 -5 9 -9 5 -14 -12z"/>
<path d="M956 155 c-7 -19 3 -25 43 -25 20 0 47 -7 59 -16 20 -14 22 -14 22 0
0 9 -6 16 -12 16 -9 0 -8 3 2 10 21 13 12 17 -52 23 -42 4 -58 2 -62 -8z"/>
<path d="M1113 131 c-1 -14 8 -23 30 -30 43 -13 117 -24 117 -17 0 9 -57 36
-75 36 -9 0 -23 7 -31 15 -21 21 -39 19 -41 -4z"/>
<path d="M349 133 c-1 -5 -1 -17 0 -28 0 -12 -2 -15 -5 -6 -5 10 -8 10 -14 1
-9 -15 -1 -50 11 -50 11 0 28 64 17 68 -4 2 -6 8 -2 13 3 5 3 9 0 9 -3 0 -7
-3 -7 -7z"/>
<path d="M384 108 c-5 -7 -2 -9 7 -4 8 4 6 1 -4 -7 -15 -12 -15 -16 -3 -26 12
-10 16 -9 24 6 16 31 -6 60 -24 31z"/>
<path d="M433 97 c5 -17 2 -27 -8 -31 -8 -3 -15 -13 -15 -23 0 -13 8 -8 31 17
18 20 28 27 25 17 -4 -12 -2 -17 6 -15 23 8 18 24 -13 42 l-32 19 6 -26z"/>
<path d="M298 104 c-14 -13 -9 -104 5 -104 9 0 12 13 9 43 -5 63 -6 70 -14 61z"/>
<path d="M1424 95 c11 -8 25 -15 32 -15 7 0 14 -6 17 -12 2 -7 7 -10 11 -6 13
11 -28 48 -54 48 -24 -1 -24 -1 -6 -15z"/>
<path d="M646 91 c-8 -13 4 -42 15 -35 12 7 12 44 0 44 -6 0 -12 -4 -15 -9z"/>
<path d="M623 58 c-6 -7 -16 -23 -22 -35 -10 -21 -9 -23 11 -21 19 2 23 8 25
35 2 36 0 39 -14 21z"/>
<path d="M1372 28 c-29 -12 -51 -23 -48 -25 3 -3 30 4 61 16 63 24 105 27 123
9 13 -13 27 -5 17 11 -10 17 -95 11 -153 -11z"/>
</g>
</svg>
