<?xml version="1.0" standalone="no"?>
<!DOCTYPE svg PUBLIC "-//W3C//DTD SVG 20010904//EN"
 "http://www.w3.org/TR/2001/REC-SVG-20010904/DTD/svg10.dtd">
<svg version="1.0" xmlns="http://www.w3.org/2000/svg"
 width="211.000000pt" height="300.000000pt" viewBox="0 0 211.000000 300.000000"
 preserveAspectRatio="xMidYMid meet">
<metadata>
Created by potrace 1.10, written by Peter Selinger 2001-2011
</metadata>
<g transform="translate(0.000000,300.000000) scale(0.100000,-0.100000)"
fill="#000000" stroke="none">
<path d="M225 2980 c-10 -11 -22 -17 -27 -13 -6 3 -14 -1 -19 -8 -4 -8 -3 -16
3 -20 6 -4 7 -12 4 -18 -11 -18 -37 -13 -43 9 -3 11 -9 20 -14 20 -5 0 -7 -11
-3 -24 4 -18 0 -30 -15 -43 -39 -33 -22 -44 21 -13 28 21 45 27 52 20 16 -16
28 -12 24 8 -2 9 9 36 24 60 30 43 25 58 -7 22z"/>
<path d="M597 2986 c-9 -9 -19 -11 -28 -5 -8 5 -17 9 -20 9 -7 0 -52 -100 -47
-105 2 -1 15 -5 30 -9 24 -5 27 -3 33 32 7 45 48 72 66 44 8 -14 9 -13 4 6 -5
19 -2 22 22 23 15 1 93 5 173 9 l145 6 -182 2 c-145 2 -184 -1 -196 -12z"/>
<path d="M1007 2993 c-16 -15 -5 -22 26 -16 47 8 57 23 16 23 -20 0 -39 -3
-42 -7z"/>
<path d="M1105 2990 c-3 -5 4 -10 15 -10 16 0 20 -5 16 -15 -8 -22 12 -18 24
4 5 11 10 22 10 25 0 10 -59 6 -65 -4z"/>
<path d="M1208 2994 c-17 -5 -34 -41 -25 -51 3 -2 18 4 34 15 15 11 38 23 51
27 33 10 29 -23 -5 -36 -17 -7 -23 -13 -15 -16 7 -3 26 0 41 7 42 17 76 -5
145 -89 56 -71 76 -85 76 -56 0 8 5 15 10 15 6 0 10 -13 10 -29 0 -39 9 -61
26 -61 18 0 18 34 -1 70 -15 29 -15 30 5 30 12 0 18 5 15 10 -3 6 -23 10 -44
10 -30 0 -40 4 -44 20 -3 11 -12 20 -21 20 -11 0 -16 9 -16 28 0 17 -3 23 -8
14 -7 -9 -13 -8 -26 7 -24 26 -13 41 32 41 28 0 33 3 22 10 -20 13 -70 13 -70
0 0 -13 -43 -13 -56 0 -11 11 -111 21 -136 14z"/>
<path d="M280 2956 c0 -2 -4 -27 -10 -55 -10 -55 -27 -80 -48 -73 -16 5 -16
-15 1 -22 9 -5 9 -7 -1 -12 -15 -7 -6 -24 14 -24 8 0 14 8 14 18 0 10 9 36 19
58 25 51 37 114 22 114 -6 0 -11 -2 -11 -4z"/>
<path d="M1487 2954 c-11 -11 2 -23 40 -39 44 -19 49 -19 33 0 -7 8 -19 15
-27 15 -7 0 -16 7 -19 15 -6 16 -17 19 -27 9z"/>
<path d="M20 2915 c0 -14 4 -25 10 -25 5 0 6 -7 3 -17 -4 -11 -3 -14 5 -9 7 4
12 14 12 22 0 8 5 14 12 14 6 0 3 9 -7 20 -24 27 -35 25 -35 -5z"/>
<path d="M331 2896 c-13 -14 -20 -29 -16 -35 3 -6 -1 -11 -9 -11 -21 0 -21
-16 0 -24 24 -9 36 3 31 30 -3 19 0 24 15 24 11 0 16 5 13 10 -3 6 -1 10 4 10
6 0 11 5 11 10 0 18 -26 10 -49 -14z"/>
<path d="M440 2885 c0 -19 -6 -44 -12 -55 -10 -16 -10 -24 0 -40 10 -16 10
-20 -2 -20 -8 0 -17 -8 -21 -17 -6 -16 -8 -15 -16 6 -5 13 -12 21 -15 18 -9
-8 19 -78 29 -74 5 1 19 21 31 42 11 22 22 42 24 45 2 2 7 -2 13 -10 13 -22 7
-86 -9 -82 -9 1 -10 -5 -6 -23 4 -15 1 -32 -6 -40 -8 -10 -9 -15 -1 -15 17 0
41 43 62 112 21 72 23 88 9 88 -5 0 -10 -7 -10 -16 0 -12 -5 -14 -17 -9 -10 5
-26 8 -35 9 -22 0 -22 0 -4 34 14 28 11 82 -5 82 -5 0 -9 -16 -9 -35z"/>
<path d="M1666 2898 c4 -7 16 -26 27 -41 15 -22 16 -31 7 -42 -18 -22 4 -18
24 4 15 16 15 21 3 28 -7 4 -22 20 -32 36 -17 26 -44 40 -29 15z"/>
<path d="M139 2848 c-25 -21 -50 -23 -68 -5 -10 10 -12 8 -9 -8 4 -25 50 -32
68 -11 7 9 19 16 27 16 13 0 13 -3 3 -15 -7 -8 -9 -15 -6 -15 10 0 66 43 66
50 0 14 -60 4 -81 -12z"/>
<path d="M1876 2850 c7 -27 23 -42 39 -37 15 5 19 37 6 50 -8 8 -11 4 -11 -13
l0 -25 -21 25 -20 25 7 -25z"/>
<path d="M2046 2822 c-21 -47 -20 -53 9 -38 16 9 19 18 15 46 l-5 35 -19 -43z"/>
<path d="M16 2826 c3 -8 1 -17 -5 -21 -18 -11 -12 -23 9 -18 24 6 28 53 5 53
-8 0 -12 -6 -9 -14z"/>
<path d="M285 2781 c-7 -42 -25 -66 -25 -34 0 15 -2 16 -10 3 -5 -8 -10 -26
-10 -40 0 -14 -7 -38 -15 -54 -9 -16 -13 -32 -9 -35 9 -9 34 30 34 54 0 12 11
32 24 45 28 25 43 77 28 92 -7 7 -12 -4 -17 -31z"/>
<path d="M1940 2803 c0 -13 9 -27 22 -34 14 -8 18 -14 10 -17 -6 -2 -12 -12
-12 -23 0 -22 7 -24 24 -6 21 21 26 46 14 72 -12 27 -31 35 -22 10 8 -20 -6
-19 -22 3 -12 16 -13 15 -14 -5z"/>
<path d="M185 2777 c-8 -31 0 -61 15 -52 12 8 13 45 1 64 -8 12 -11 9 -16 -12z"/>
<path d="M1591 2777 c-9 -23 3 -169 15 -189 8 -12 34 11 34 28 0 8 -5 14 -11
14 -8 0 -10 15 -7 44 4 32 1 49 -11 60 -13 13 -13 20 -4 36 8 12 9 21 3 25 -6
3 -14 -5 -19 -18z"/>
<path d="M77 2770 c-12 -36 -17 -100 -7 -100 5 0 10 18 10 40 0 48 15 53 25 8
12 -51 12 -52 13 -75 1 -13 7 -23 12 -23 23 0 2 103 -30 142 -15 18 -20 20
-23 8z"/>
<path d="M1912 2755 c14 -32 0 -84 -27 -99 -23 -12 -35 -26 -35 -40 0 -6 7 -1
15 10 15 18 15 18 13 0 -2 -10 3 -21 10 -23 6 -3 12 3 12 12 0 8 6 26 14 38
30 48 30 127 0 127 -11 0 -11 -5 -2 -25z"/>
<path d="M17 2763 c-11 -10 -8 -70 5 -100 16 -37 15 -36 28 -28 8 5 6 14 -6
32 -11 18 -14 37 -10 64 6 36 -1 49 -17 32z"/>
<path d="M333 2723 c-22 -8 -14 -23 12 -23 22 0 25 -4 25 -34 0 -20 6 -36 14
-39 11 -4 13 -16 9 -41 -7 -45 13 -49 22 -5 5 24 2 36 -14 53 -12 12 -21 32
-21 43 0 46 -14 60 -47 46z"/>
<path d="M330 2671 c0 -6 -9 -11 -19 -11 -31 0 -34 -17 -4 -25 33 -8 59 24 33
40 -5 3 -10 1 -10 -4z"/>
<path d="M1744 2665 c-9 -23 22 -53 38 -37 9 9 9 12 0 12 -7 0 -12 6 -12 14 0
22 -19 30 -26 11z"/>
<path d="M1687 2633 c-3 -5 -8 -23 -12 -40 -7 -33 -18 -42 -30 -22 -5 7 -14 4
-26 -7 -21 -19 -25 -35 -8 -31 6 1 12 -24 15 -63 5 -64 45 -170 65 -170 5 0 9
16 9 35 0 30 -3 35 -22 35 -18 0 -20 2 -8 10 12 7 12 13 1 34 -15 27 -10 84
12 148 14 40 27 59 27 39 0 -7 5 -9 10 -6 7 4 7 13 0 26 -11 20 -25 25 -33 12z"/>
<path d="M266 2604 c-10 -26 -7 -44 8 -38 7 3 16 -2 19 -10 9 -22 24 -20 30 5
4 14 2 19 -8 15 -8 -3 -16 5 -19 20 -7 27 -21 31 -30 8z"/>
<path d="M1750 2578 c0 -17 3 -19 9 -10 6 10 11 6 19 -17 6 -17 16 -31 21 -31
16 0 14 11 -9 48 -23 37 -40 42 -40 10z"/>
<path d="M430 2541 c0 -17 -5 -29 -12 -28 -36 1 -46 -7 -65 -53 -21 -49 -15
-71 8 -27 19 36 50 66 64 61 8 -3 16 4 20 17 7 21 8 20 21 -11 11 -25 17 -31
26 -22 21 21 -23 92 -56 92 -3 0 -6 -13 -6 -29z"/>
<path d="M1875 2558 c-4 -10 -5 -25 -1 -33 3 -8 -2 -21 -10 -30 -9 -9 -13 -23
-10 -32 6 -14 10 -11 26 15 11 18 20 36 20 40 0 4 9 13 20 20 21 13 27 32 11
32 -5 0 -16 -7 -25 -15 -13 -13 -15 -13 -19 3 -4 16 -4 16 -12 0z"/>
<path d="M45 2538 c5 -18 3 -28 -4 -28 -6 0 -11 5 -11 10 0 6 -4 10 -10 10 -5
0 -8 -13 -7 -30 l2 -30 30 30 c28 29 29 31 12 47 -18 17 -18 17 -12 -9z"/>
<path d="M250 2535 c27 -29 40 -32 40 -10 0 9 -12 20 -26 25 -38 15 -40 13
-14 -15z"/>
<path d="M31 2459 c-18 -22 -30 -43 -26 -47 7 -7 46 35 66 71 18 31 -5 17 -40
-24z"/>
<path d="M98 2494 c-5 -4 -8 -18 -8 -30 0 -13 -9 -28 -20 -34 -11 -6 -20 -21
-20 -35 0 -14 -11 -31 -28 -44 -26 -19 -26 -20 -5 -21 12 0 28 9 35 19 8 11
30 27 51 37 36 17 54 43 20 29 -53 -22 -57 -20 -34 12 20 27 27 86 9 67z"/>
<path d="M215 2460 c-4 -16 -11 -30 -16 -30 -5 0 -9 -8 -9 -17 1 -26 50 32 50
58 0 30 -18 22 -25 -11z"/>
<path d="M1920 2469 c0 -8 -3 -24 -6 -36 -4 -14 -2 -23 5 -23 6 0 11 7 11 16
0 8 5 12 10 9 16 -10 12 21 -5 35 -12 10 -15 10 -15 -1z"/>
<path d="M812 2452 c-9 -6 -5 -12 13 -22 18 -10 28 -11 36 -3 24 24 -18 44
-49 25z"/>
<path d="M1817 2453 c-11 -10 -8 -73 3 -73 6 0 10 12 10 26 0 22 2 25 15 14
18 -15 19 -1 1 23 -14 19 -19 20 -29 10z"/>
<path d="M260 2437 c0 -7 6 -21 13 -32 10 -13 16 -15 21 -6 5 7 5 15 2 18 -3
3 -1 12 5 20 9 10 6 13 -15 13 -15 0 -26 -6 -26 -13z"/>
<path d="M427 2420 c-18 -22 -24 -100 -7 -100 6 0 10 8 10 19 0 14 6 17 25 13
21 -4 24 -8 19 -31 l-5 -26 24 28 c17 20 37 30 66 34 23 3 44 10 47 14 9 15
57 10 101 -11 42 -19 43 -19 53 0 14 26 12 34 -5 20 -15 -13 -50 -6 -75 15 -8
7 -26 13 -40 13 -14 0 -32 1 -40 3 -8 2 -14 -1 -13 -8 1 -6 -4 -14 -12 -17 -8
-3 -15 -1 -15 4 0 6 -19 10 -41 10 -34 0 -39 -2 -30 -14 9 -10 8 -15 -3 -19
-22 -9 -35 12 -26 44 10 35 -7 39 -33 9z"/>
<path d="M910 2422 c0 -10 -4 -22 -9 -27 -5 -6 -12 -25 -16 -42 -6 -32 0 -39
28 -34 5 1 5 -8 2 -20 -5 -15 -3 -20 6 -17 19 6 18 54 0 50 -10 -2 -12 4 -7
25 17 66 18 83 7 83 -6 0 -11 -8 -11 -18z"/>
<path d="M1001 2375 c-12 -23 -21 -47 -21 -53 0 -6 -4 -12 -9 -14 -5 -1 -12
-15 -16 -29 -6 -23 -1 -30 29 -48 20 -13 40 -20 46 -16 16 10 12 22 -10 28
-43 11 -33 73 20 126 l27 27 -22 10 c-21 10 -25 7 -44 -31z"/>
<path d="M218 2390 c-9 -10 -13 -22 -10 -26 4 -5 -1 -2 -10 5 -15 11 -18 11
-18 -2 0 -8 6 -20 14 -26 11 -9 18 -5 35 22 30 50 24 65 -11 27z"/>
<path d="M364 2399 c-3 -6 -1 -15 6 -19 9 -6 8 -10 -6 -18 -18 -11 -18 -11 1
-26 11 -9 14 -16 8 -16 -18 0 -16 -40 1 -40 22 0 25 12 19 73 -6 55 -14 69
-29 46z"/>
<path d="M947 2378 c-2 -18 -2 -37 0 -41 8 -13 20 5 28 41 5 25 3 32 -8 32 -9
0 -17 -13 -20 -32z"/>
<path d="M1158 2355 c-2 -21 0 -35 7 -35 14 0 45 -64 45 -93 0 -13 -5 -28 -11
-34 -13 -13 -3 -67 15 -82 10 -8 24 -3 55 19 51 37 54 60 5 30 -62 -36 -65 -2
-9 76 13 18 13 23 0 40 -14 18 -14 18 -15 1 0 -28 -44 28 -59 76 -16 46 -28
47 -33 2z"/>
<path d="M605 2350 c-10 -11 -22 -17 -26 -14 -5 3 -9 1 -9 -5 0 -5 5 -13 10
-16 6 -3 10 -14 10 -24 0 -16 12 -19 90 -25 82 -7 160 3 160 21 0 12 -35 63
-43 63 -5 0 -2 -11 7 -25 22 -34 20 -40 -7 -22 -19 12 -26 12 -40 2 -28 -20
-80 -13 -92 13 -5 12 -18 25 -28 28 -9 3 -15 10 -12 15 10 16 -1 10 -20 -11z
m45 -45 c0 -8 -4 -15 -8 -15 -13 0 -32 23 -32 37 0 11 5 11 20 3 11 -6 20 -17
20 -25z"/>
<path d="M1331 2345 c15 -15 32 -24 38 -21 15 9 -6 31 -39 41 l-25 7 26 -27z"/>
<path d="M1410 2346 c0 -9 -16 -24 -35 -33 -33 -16 -46 -33 -25 -33 14 0 64
23 78 37 14 13 32 17 32 8 0 -3 -7 -17 -16 -30 -9 -13 -14 -30 -11 -37 3 -8 9
-2 16 15 6 15 15 27 20 27 21 0 41 -13 41 -26 0 -8 5 -14 10 -14 6 0 10 7 10
15 0 10 10 15 31 15 26 0 29 -3 24 -20 -5 -16 -3 -19 12 -13 16 6 16 5 4 -10
-7 -9 -20 -17 -27 -17 -8 0 -14 -4 -14 -10 0 -20 36 -9 70 22 29 25 31 30 13
25 -15 -3 -23 -1 -23 8 0 14 -46 55 -61 55 -4 0 -15 -7 -24 -16 -15 -15 -18
-15 -43 9 -35 33 -82 46 -82 23z"/>
<path d="M60 2320 c-25 -25 -27 -49 -2 -28 9 9 27 19 40 22 12 4 22 12 22 17
0 16 -40 9 -60 -11z"/>
<path d="M1277 2321 c-2 -11 0 -24 5 -29 12 -12 38 -5 38 10 0 5 -6 6 -12 2
-10 -6 -10 -4 0 7 17 19 15 29 -7 29 -10 0 -21 -9 -24 -19z"/>
<path d="M1945 2331 c12 -21 76 -44 88 -32 11 11 6 14 -38 24 -11 3 -29 8 -39
13 -14 5 -17 4 -11 -5z"/>
<path d="M294 2293 c-4 -16 -14 -40 -22 -55 -17 -29 -8 -53 9 -28 8 12 9 11 5
-5 -3 -11 -8 -33 -12 -48 l-7 -29 27 27 c18 18 25 33 20 44 -3 9 -6 40 -4 69
2 57 -6 68 -16 25z"/>
<path d="M1088 2274 c-16 -8 -28 -19 -28 -24 0 -15 36 -12 50 5 20 24 7 35
-22 19z"/>
<path d="M1695 2270 c-3 -5 -1 -10 5 -10 6 0 8 -4 5 -10 -3 -5 -15 -10 -26
-10 -10 0 -19 -4 -19 -10 0 -5 7 -10 15 -10 25 0 17 -18 -10 -22 -14 -2 -24
-7 -23 -13 3 -9 45 -8 61 2 4 2 7 15 7 28 0 13 5 27 10 30 6 3 10 13 10 21 0
16 -26 19 -35 4z"/>
<path d="M186 2244 c-9 -8 -14 -20 -10 -25 8 -13 44 8 44 26 0 19 -15 19 -34
-1z"/>
<path d="M1396 2215 c6 -23 3 -25 -25 -25 -65 0 -27 -16 62 -27 105 -12 149
-30 189 -76 20 -23 28 -27 28 -15 0 30 -48 74 -122 111 -41 20 -84 37 -96 37
-12 0 -22 5 -22 10 0 6 -5 10 -10 10 -6 0 -8 -11 -4 -25z"/>
<path d="M650 2221 c8 -5 35 -13 61 -16 49 -7 89 -28 77 -40 -4 -4 -23 -2 -44
5 -47 16 -199 9 -238 -11 -42 -20 -45 -39 -7 -39 20 0 31 -5 31 -14 0 -18 22
-26 75 -26 61 0 75 8 75 40 0 16 4 31 9 34 5 4 43 -12 85 -34 41 -22 80 -40
86 -40 23 0 7 21 -32 41 -37 19 -40 23 -25 34 29 21 20 40 -25 52 -62 17 -146
26 -128 14z m-50 -85 c0 -2 3 -11 6 -20 4 -12 0 -16 -15 -16 -12 0 -21 5 -21
11 0 6 -7 9 -15 5 -15 -5 -20 5 -8 17 7 8 53 10 53 3z"/>
<path d="M501 2209 c-24 -5 -61 -20 -81 -34 -45 -31 -50 -31 -51 3 l-1 27 -14
-32 c-8 -19 -21 -33 -32 -33 -14 0 -15 -2 -2 -10 8 -5 32 -10 52 -10 29 0 41
6 54 25 11 17 35 30 73 41 93 27 95 41 2 23z"/>
<path d="M930 2200 c-23 -23 -25 -36 -9 -46 7 -4 19 2 28 13 9 11 23 23 31 25
11 4 10 7 -7 17 -19 10 -26 8 -43 -9z"/>
<path d="M216 2193 c-2 -10 -7 -33 -11 -50 -8 -39 -17 -41 -38 -10 -13 20 -17
21 -37 9 -21 -13 -22 -12 -16 12 7 27 0 32 -23 17 -10 -6 -11 -13 -2 -29 6
-11 11 -25 11 -31 0 -14 -37 -14 -45 -1 -8 13 -25 3 -25 -16 0 -25 64 -17 92
11 22 21 27 23 37 11 10 -12 8 -23 -11 -55 -27 -47 -18 -64 16 -32 24 23 76
136 76 166 0 21 -18 19 -24 -2z"/>
<path d="M1938 2144 c-7 -11 18 -74 29 -74 5 0 14 10 22 21 10 17 15 19 21 8
5 -7 12 -10 16 -6 5 4 -2 18 -14 30 l-23 22 -5 -22 c-8 -31 -20 -29 -31 4 -5
15 -12 23 -15 17z"/>
<path d="M1330 2114 c-68 -19 -106 -42 -92 -56 7 -7 19 -4 39 12 l28 22 3 -31
c3 -26 9 -32 43 -41 22 -6 57 -10 77 -8 31 3 38 7 46 36 11 40 27 41 59 2 14
-16 33 -30 41 -30 27 0 18 -19 -11 -25 -59 -12 -78 -21 -82 -40 -2 -15 0 -17
10 -9 13 11 34 17 108 32 19 4 32 12 30 17 -2 6 -10 8 -19 7 -12 -3 -13 -1 -2
9 22 23 13 35 -62 73 -86 44 -139 52 -216 30z m51 -47 c-6 -6 -11 -15 -11 -21
0 -6 5 -5 12 2 15 15 58 16 58 2 0 -5 -4 -10 -9 -10 -5 0 -23 -3 -40 -6 -26
-6 -32 -3 -40 17 -11 31 -6 38 20 32 14 -4 17 -9 10 -16z"/>
<path d="M421 2111 c-8 -5 -11 -16 -6 -30 7 -22 25 -29 25 -10 0 8 5 7 15 -1
22 -18 27 -8 12 23 -13 28 -23 32 -46 18z"/>
<path d="M911 2085 c-42 -36 -76 -85 -59 -85 14 0 103 98 95 106 -2 3 -18 -7
-36 -21z"/>
<path d="M2050 2065 c0 -25 5 -45 10 -45 6 0 10 20 10 45 0 25 -4 45 -10 45
-5 0 -10 -20 -10 -45z"/>
<path d="M711 2081 c-7 -5 -9 -11 -4 -14 14 -9 83 4 83 14 0 12 -61 11 -79 0z"/>
<path d="M270 2041 c0 -6 5 -11 12 -11 6 0 5 -7 -5 -18 -15 -16 -15 -21 -3
-37 8 -11 11 -26 8 -35 -4 -13 -3 -13 11 0 8 8 17 35 19 60 3 40 1 45 -19 48
-13 2 -23 -1 -23 -7z"/>
<path d="M625 2030 c4 -11 2 -20 -4 -20 -6 0 -11 -7 -11 -15 0 -20 7 -19 32 5
17 16 19 22 8 35 -18 21 -33 19 -25 -5z"/>
<path d="M495 2020 c-18 -8 -17 -9 6 -9 23 -1 27 -7 33 -38 12 -73 -1 -127
-42 -175 -15 -18 -38 -25 -28 -10 6 10 36 151 36 170 0 6 -4 12 -8 12 -4 0
-16 -40 -26 -89 -21 -107 -41 -133 -94 -130 -65 4 -88 0 -111 -22 -19 -18 -25
-19 -32 -8 -4 7 -11 11 -14 7 -10 -9 13 -46 35 -58 24 -13 26 -36 3 -44 -15
-6 -32 8 -33 27 0 4 -7 7 -15 7 -8 0 -12 -6 -9 -14 3 -9 -6 -17 -25 -24 -39
-14 -40 -23 -2 -12 32 9 42 5 35 -15 -6 -15 47 -58 90 -75 49 -18 41 -3 -18
35 -55 35 -64 55 -25 55 28 0 49 48 28 64 -16 12 -14 36 5 48 6 4 41 8 78 8
58 0 73 4 114 31 58 40 83 92 84 172 0 87 -16 108 -65 87z"/>
<path d="M94 2004 c8 -22 -4 -40 -15 -23 -6 10 -9 4 -9 -16 0 -17 -5 -36 -12
-43 -8 -8 -9 -12 -1 -12 20 0 53 51 53 81 0 16 -5 29 -11 29 -6 0 -8 -7 -5
-16z"/>
<path d="M1280 1987 c0 -6 15 -17 33 -24 157 -57 211 -73 228 -68 20 7 17 27
-4 24 -27 -3 -63 2 -77 11 -13 9 -13 11 0 20 11 7 12 12 4 20 -7 7 -14 8 -18
2 -6 -11 -85 1 -115 18 -27 14 -51 13 -51 -3z"/>
<path d="M233 1973 c-7 -2 -13 -11 -13 -19 0 -19 -17 -18 -29 4 -9 14 -10 13
-11 -10 0 -22 5 -28 21 -28 15 0 19 -4 14 -19 -3 -11 -1 -22 5 -26 5 -3 10 1
10 11 0 13 3 14 15 4 12 -10 15 -10 15 2 0 8 -5 19 -10 24 -7 7 -8 19 -1 37
10 27 8 30 -16 20z"/>
<path d="M1967 1966 c-8 -20 -1 -40 31 -88 13 -21 29 -35 34 -32 6 4 6 10 -1
17 -6 6 -11 19 -11 29 0 10 -7 21 -15 24 -8 4 -15 14 -15 23 0 9 -4 22 -9 29
-7 11 -9 11 -14 -2z"/>
<path d="M2030 1963 c0 -6 36 -83 48 -102 1 -3 8 1 14 7 9 9 7 15 -8 26 -17
13 -17 18 -6 36 16 26 8 38 -13 20 -12 -10 -15 -10 -15 4 0 9 -4 16 -10 16 -5
0 -10 -3 -10 -7z"/>
<path d="M340 1947 c0 -8 4 -17 10 -19 5 -1 13 -19 16 -38 l7 -35 -23 20 -23
20 8 -25 c4 -14 13 -31 19 -38 10 -10 15 -5 25 28 12 42 6 65 -23 90 -13 10
-16 10 -16 -3z"/>
<path d="M1617 1954 c-10 -16 14 -94 29 -94 18 0 17 16 -5 64 -10 22 -20 35
-24 30z"/>
<path d="M1280 1949 c0 -2 9 -28 20 -57 29 -75 27 -148 -5 -195 -25 -35 -45
-48 -45 -27 0 5 -7 7 -15 4 -8 -4 -15 -12 -15 -18 0 -14 -49 -40 -58 -31 -3 3
0 5 6 5 7 0 12 5 12 11 0 7 -11 8 -29 4 -17 -3 -32 -2 -36 4 -4 7 4 11 21 11
26 0 26 1 10 19 -9 10 -14 25 -10 35 8 20 -5 20 -48 2 -18 -7 -51 -19 -73 -26
-44 -14 -65 -27 -65 -43 0 -9 43 -6 118 9 31 6 33 5 27 -18 -4 -16 -1 -29 9
-37 9 -8 16 -11 16 -8 0 3 16 1 35 -4 30 -9 39 -7 68 15 44 34 85 43 93 21 8
-20 -4 -33 -36 -39 -14 -2 -27 -5 -29 -5 -11 -3 24 -31 38 -31 26 0 90 89 90
125 0 18 0 19 -10 3 -22 -39 -30 -18 -23 61 7 88 -11 164 -46 196 -11 10 -20
16 -20 14z"/>
<path d="M1912 1880 c21 -38 38 -52 38 -29 0 15 -21 53 -34 61 -23 16 -24 7
-4 -32z"/>
<path d="M185 1870 c11 -22 13 -35 6 -49 -12 -21 -5 -32 15 -24 19 7 18 48 -2
78 -23 35 -38 31 -19 -5z"/>
<path d="M1017 1894 c-3 -4 -2 -15 4 -26 15 -28 63 -21 67 10 2 12 -1 22 -7
22 -6 0 -11 -8 -11 -17 -1 -17 -1 -17 -14 0 -14 18 -28 22 -39 11z"/>
<path d="M20 1870 c0 -6 7 -13 15 -16 20 -8 19 -24 -1 -24 -8 0 -12 -4 -9 -10
3 -5 13 -10 21 -10 23 0 15 64 -8 68 -10 2 -18 -2 -18 -8z"/>
<path d="M978 1863 c-1 -5 -16 -15 -32 -23 -41 -21 -77 -98 -84 -178 -4 -55
-2 -67 13 -79 21 -15 150 -18 159 -4 7 11 -27 21 -70 21 -40 0 -74 27 -76 60
-2 39 58 155 87 168 14 6 25 18 25 27 0 15 -16 21 -22 8z"/>
<path d="M1720 1853 c0 -22 -23 -47 -33 -36 -16 15 -5 -21 13 -47 15 -21 19
-39 15 -71 -2 -24 -7 -109 -10 -189 -5 -155 -21 -234 -76 -390 -17 -47 -39
-100 -50 -118 -22 -38 -23 -42 -9 -42 40 0 134 245 160 415 6 39 15 82 21 98
8 18 8 31 2 40 -6 6 -10 85 -10 175 0 108 -4 167 -12 175 -8 8 -11 6 -11 -10z"/>
<path d="M2014 1785 c12 -25 23 -45 26 -45 3 0 5 20 5 44 0 32 -3 42 -12 35
-7 -7 -14 -6 -18 1 -3 5 -10 10 -14 10 -4 0 2 -20 13 -45z"/>
<path d="M89 1715 c-4 -31 -3 -41 4 -52 6 -9 3 -15 -8 -19 -11 -5 -21 -1 -27
9 -5 10 -16 17 -24 17 -11 0 -7 -10 13 -35 32 -39 43 -44 43 -16 0 10 7 21 15
25 8 3 15 14 15 24 0 20 -28 63 -31 47z"/>
<path d="M300 1638 c0 -7 9 -30 20 -51 27 -49 25 -79 -5 -116 l-26 -30 23 -3
c15 -2 24 -11 26 -25 3 -20 -1 -23 -32 -23 -39 0 -48 -15 -16 -25 10 -3 33
-25 50 -47 31 -43 41 -34 16 14 -9 16 -11 30 -5 33 5 4 9 49 9 102 0 80 -3 99
-20 120 -11 14 -20 32 -20 39 0 7 -4 16 -10 19 -5 3 -10 0 -10 -7z"/>
<path d="M193 1505 c-23 -22 -30 -45 -15 -45 17 0 65 48 58 58 -10 16 -17 14
-43 -13z"/>
<path d="M120 1479 c-7 -13 -26 -38 -42 -55 -17 -18 -25 -34 -20 -38 6 -3 22
9 36 26 14 18 33 41 42 52 11 12 13 21 6 28 -7 7 -14 2 -22 -13z"/>
<path d="M39 1471 c-13 -11 -21 -23 -17 -27 5 -4 16 0 26 9 10 10 26 17 35 17
9 0 17 5 17 10 0 17 -36 11 -61 -9z"/>
<path d="M1111 1408 c-5 -15 -5 -24 2 -27 13 -5 38 29 31 40 -9 16 -24 9 -33
-13z"/>
<path d="M160 1294 c0 -6 -9 -14 -20 -17 -25 -6 -26 -27 -2 -27 20 0 52 29 52
47 0 5 -7 10 -15 10 -8 0 -15 -6 -15 -13z"/>
<path d="M1006 1293 c-2 -2 -70 -8 -152 -14 -157 -10 -184 -14 -184 -30 0 -5
99 -6 253 -2 168 4 274 2 317 -5 112 -19 227 -25 235 -12 11 18 2 21 -82 27
-49 4 -85 11 -96 21 -14 12 -47 16 -152 17 -74 1 -136 0 -139 -2z"/>
<path d="M172 1184 c-1 -19 2 -25 12 -21 7 3 19 0 25 -6 8 -8 14 -8 23 1 10
10 8 14 -9 18 -12 3 -24 12 -27 20 -9 23 -21 16 -24 -12z"/>
<path d="M767 1174 c-3 -5 -4 -25 -3 -44 1 -19 -4 -46 -13 -59 -14 -21 -13
-24 10 -42 31 -24 57 -26 34 -3 -10 10 -14 25 -11 38 3 12 6 27 6 34 0 7 5 10
10 7 14 -8 13 -4 -9 40 -10 21 -21 34 -24 29z"/>
<path d="M967 1163 c-4 -3 -7 -21 -7 -39 0 -18 -4 -36 -10 -39 -5 -3 -10 -12
-9 -18 0 -7 7 -2 16 11 8 12 22 22 29 22 8 0 14 7 14 15 0 8 -5 15 -11 15 -6
0 -8 9 -4 20 6 19 -5 27 -18 13z"/>
<path d="M1039 1114 c-13 -14 -22 -29 -20 -32 2 -4 -13 -15 -33 -25 -20 -9
-36 -24 -36 -32 0 -20 20 -19 36 3 13 16 15 16 29 -2 18 -24 34 -12 18 14 -10
14 -9 19 2 24 8 3 15 12 15 20 0 9 9 20 20 26 11 6 20 15 20 20 0 18 -26 10
-51 -16z"/>
<path d="M1118 1115 c-13 -29 7 -64 26 -45 8 8 7 13 -3 19 -9 6 -10 11 -2 15
14 9 14 36 1 36 -6 0 -15 -11 -22 -25z"/>
<path d="M897 1094 c-38 -26 -39 -29 -20 -81 3 -8 -3 -13 -17 -13 -17 0 -21
-5 -18 -27 2 -22 8 -28 28 -28 24 1 25 4 27 59 1 33 7 65 16 74 16 19 30 42
25 42 -2 0 -20 -12 -41 -26z"/>
<path d="M1382 1081 c-13 -52 2 -64 18 -15 8 23 9 39 2 46 -6 6 -13 -5 -20
-31z"/>
<path d="M1487 1113 c-14 -13 -7 -33 11 -33 24 0 32 8 25 26 -5 15 -25 19 -36
7z"/>
<path d="M446 1071 c-9 -13 22 -29 73 -37 49 -8 53 2 9 20 -56 23 -76 27 -82
17z"/>
<path d="M1338 1074 c-15 -14 -8 -55 10 -61 9 -4 22 -14 29 -22 11 -15 12 -14
13 0 0 9 -9 24 -19 33 -11 10 -21 27 -23 38 -2 11 -6 16 -10 12z"/>
<path d="M1075 1016 c-18 -38 -13 -96 9 -96 7 0 18 -10 24 -22 11 -21 12 -20
6 9 -3 17 0 34 5 38 6 3 11 13 11 22 0 14 -2 14 -19 -1 -18 -17 -20 -16 -26 3
-8 25 1 41 21 41 9 0 14 7 12 17 -6 30 -26 25 -43 -11z"/>
<path d="M1138 1025 c-4 -19 -2 -25 8 -21 19 7 18 -25 -1 -50 -17 -22 -19 -44
-5 -44 6 0 10 7 10 15 0 10 10 15 26 15 25 0 26 1 11 23 -8 13 -17 37 -19 52
-4 37 -24 43 -30 10z"/>
<path d="M1190 1021 c0 -32 49 -100 50 -70 0 9 -7 22 -15 29 -8 7 -15 25 -15
41 0 16 -4 29 -10 29 -5 0 -10 -13 -10 -29z"/>
<path d="M1280 1040 c0 -5 5 -10 10 -10 6 0 5 -8 -2 -19 -7 -11 -16 -17 -21
-14 -6 4 -7 -5 -3 -21 4 -16 2 -34 -4 -41 -9 -10 -9 -17 0 -27 6 -7 17 -22 25
-33 7 -11 17 -16 22 -12 4 5 1 14 -8 20 -16 13 -33 47 -22 47 4 0 20 -12 35
-27 39 -37 37 -8 -3 40 -21 26 -26 37 -16 37 28 0 46 -12 40 -26 -3 -8 1 -14
11 -14 22 0 21 37 -2 44 -10 3 -23 19 -29 36 -11 28 -33 42 -33 20z"/>
<path d="M934 981 c-2 -2 -4 -14 -4 -25 0 -17 2 -18 10 -6 9 13 11 13 20 0 8
-13 10 -12 10 3 0 10 5 15 10 12 6 -3 10 1 10 9 0 11 -8 15 -26 14 -14 -2 -27
-4 -30 -7z"/>
<path d="M1030 958 c0 -17 -8 -40 -17 -50 -15 -16 -15 -21 -3 -28 15 -9 16 -9
-30 -23 -12 -4 -11 -6 4 -13 31 -12 56 28 56 92 0 30 -2 54 -5 54 -3 0 -5 -14
-5 -32z"/>
<path d="M1465 980 c-5 -9 56 -72 63 -65 2 1 -4 19 -12 39 -14 35 -38 47 -51
26z"/>
<path d="M623 966 c-7 -8 -18 -16 -25 -18 -11 -4 -10 -8 1 -21 16 -21 31 -22
31 -3 0 8 7 16 15 20 8 3 12 12 9 21 -7 18 -15 19 -31 1z"/>
<path d="M1397 910 c4 -34 2 -50 -6 -50 -6 0 -11 12 -11 26 0 14 -4 23 -10 19
-13 -8 -13 -46 1 -65 8 -11 12 -12 16 -2 2 6 9 12 14 12 6 0 5 -8 -1 -20 -13
-24 2 -27 21 -4 10 12 10 20 1 35 -10 16 -9 26 8 59 11 22 16 40 10 40 -5 0
-10 -5 -10 -12 0 -9 -3 -9 -12 0 -22 22 -27 13 -21 -38z"/>
<path d="M742 923 c-30 -45 -33 -51 -23 -58 9 -5 61 64 61 80 0 14 -21 2 -38
-22z"/>
<path d="M1170 905 c0 -9 7 -18 15 -21 8 -3 17 -15 21 -26 4 -15 9 -17 17 -9
15 15 27 14 27 -1 0 -7 14 -29 31 -48 l30 -35 -25 50 c-34 69 -116 132 -116
90z"/>
<path d="M807 862 l-27 -28 35 4 c35 4 42 15 27 40 -6 9 -15 5 -35 -16z"/>
<path d="M581 863 c-12 -8 -21 -18 -21 -24 0 -12 51 0 68 16 21 19 -21 26 -47
8z"/>
<path d="M912 864 c-11 -12 -11 -17 2 -29 18 -19 26 -19 26 -1 0 8 7 22 16 30
14 15 13 16 -8 16 -13 -1 -29 -7 -36 -16z"/>
<path d="M1304 835 c-3 -7 7 -31 23 -51 19 -25 24 -39 15 -42 -14 -4 -16 -42
-2 -42 6 0 19 9 29 19 19 19 19 20 -1 38 -11 10 -29 32 -41 48 l-21 30 27 -24
c21 -19 27 -21 27 -8 0 17 -26 47 -41 47 -5 0 -12 -7 -15 -15z"/>
<path d="M730 830 c0 -5 -10 -9 -22 -7 -20 2 -23 -3 -25 -33 -2 -32 -2 -33 9
-13 10 21 12 22 25 5 13 -16 13 -16 11 2 -2 12 6 24 19 31 13 7 20 15 16 18
-10 11 -33 8 -33 -3z"/>
<path d="M968 796 c-8 -20 -7 -28 6 -41 9 -9 16 -22 16 -29 0 -22 51 -106 61
-100 5 3 0 22 -10 42 -50 94 -59 118 -49 135 6 11 5 17 -2 17 -6 0 -15 -11
-22 -24z"/>
<path d="M1036 798 c-21 -29 -22 -62 -2 -35 13 16 14 16 20 -9 5 -17 3 -30 -4
-34 -11 -7 9 -20 31 -20 12 0 12 47 -1 55 -5 3 -10 19 -10 36 0 35 -13 37 -34
7z"/>
<path d="M1432 813 c-6 -2 -9 -9 -6 -14 3 -6 -2 -19 -12 -30 -15 -17 -15 -19
-1 -19 17 0 47 36 47 57 0 14 -6 15 -28 6z"/>
<path d="M1180 756 c0 -17 39 -66 40 -49 0 6 -4 23 -10 37 -10 28 -30 35 -30
12z"/>
<path d="M1246 743 c10 -42 17 -49 25 -25 10 27 2 52 -17 52 -11 0 -13 -7 -8
-27z"/>
<path d="M1120 723 c0 -23 11 -38 32 -46 17 -6 34 18 18 28 -4 3 -10 -1 -13
-7 -3 -8 -9 -1 -16 15 -12 31 -21 35 -21 10z"/>
</g>
</svg>
